<?xml version="1.0" encoding="UTF-8"?>
<svg width="235px" height="61px" viewBox="0 0 235 61" version="1.1" xmlns="http://www.w3.org/2000/svg" xmlns:xlink="http://www.w3.org/1999/xlink">
    <title>perch-logo-monochrome-primary-black</title>
    <defs>
        <filter id="filter-1">
            <feColorMatrix in="SourceGraphic" type="matrix" values="0 0 0 0 0.211765 0 0 0 0 0.207843 0 0 0 0 0.215686 0 0 0 1.000000 0"></feColorMatrix>
        </filter>
    </defs>
    <g id="Page-1" stroke="none" stroke-width="1" fill="none" fill-rule="evenodd">
        <g id="perch-logo-monochrome-primary-black" transform="translate(-370.000000, -2424.000000)" filter="url(#filter-1)">
            <g transform="translate(370.000000, 2424.000000)">
                <g id="Wordmark" transform="translate(77.821101, 20.732143)" fill="#424242">
                    <path d="M12.5,15.5 C15.7,15.5 17.6,13.6 17.6,11.1 L17.6,11 C17.6,8.1 15.6,6.6 12.4,6.6 L7.4,6.6 L7.4,15.5 C7.4,15.5 12.5,15.5 12.5,15.5 Z M1,0.7 L13,0.7 C20,0.7 24.2,4.8 24.2,10.8 L24.2,10.9 C24.2,17.7 18.9,21.2 12.3,21.2 L7.4,21.2 L7.4,29.9 L0.9,29.9 L1,0.7 L1,0.7 Z" id="Fill-1"></path>
                    <polygon id="Fill-3" points="32.3 0.7 54.5 0.7 54.5 6.4 38.7 6.4 38.7 12.3 52.6 12.3 52.6 18 38.7 18 38.7 24.1 54.7 24.1 54.7 29.9 32.3 29.9"></polygon>
                    <path d="M78.4,14.9 C81.6,14.9 83.4,13.3 83.4,10.8 L83.4,10.7 C83.4,7.9 81.5,6.6 78.3,6.6 L71.9,6.6 L71.9,15 L78.4,14.9 L78.4,14.9 Z M65.4,0.7 L78.9,0.7 C82.6,0.7 85.5,1.8 87.5,3.7 C89.2,5.3 90,7.6 90,10.3 L90,10.4 C90,15.1 87.4,18.1 83.7,19.4 L90.9,29.8 L83.4,29.8 L76.9,20.6 L71.9,20.6 L71.9,30 L65.4,30 L65.4,0.7 L65.4,0.7 Z" id="Fill-5"></path>
                    <path d="M96.2,15.4 L96.2,15.4 C96.2,7 102.5,0.2 111.5,0.2 C117.1,0.2 120.3,2.1 123.1,4.7 L118.9,9.5 C116.7,7.5 114.4,6.2 111.4,6.2 C106.5,6.2 102.9,10.3 102.9,15.3 L102.9,15.4 C102.9,20.4 106.4,24.5 111.4,24.5 C114.8,24.5 116.8,23.2 119.1,21.1 L123.2,25.2 C120.2,28.4 116.8,30.4 111.2,30.4 C102.6,30.4 96.2,23.8 96.2,15.4" id="Fill-7"></path>
                    <polygon id="Fill-9" points="131.8 0.7 138.3 0.7 138.3 12.3 150.2 12.3 150.2 0.7 156.7 0.7 156.7 29.9 150.2 29.9 150.2 18.2 138.3 18.2 138.3 29.9 131.8 29.9"></polygon>
                </g>
                <g id="Perchy" fill="#424242">
                    <path d="M43.2,47.8 C43.2,47.7 43.2,47.7 43.2,47.8 C38.1,51.7 31.1,52 25.6,48.5 L28.9,43.8 L32.2,39.1 C32.2,39.7 32.2,40.3 32.3,40.9 C32.6,42.9 33.6,45 35.4,46.4 C36.1,46.9 36.8,47.3 37.6,47.6 C39.4,48.3 41.5,48.4 43.2,47.8 M47.1,26.1 C46.8,26.4 46.1,26.2 45.5,25.6 C44.9,25 44.7,24.3 45,24 C45.3,23.7 46,23.9 46.6,24.5 C47.2,25.1 47.4,25.8 47.1,26.1 M45,20.7 L36,33.6 L34.3,36 C32.4,38.7 33.2,42.6 35.2,44.8 C35.4,45.1 35.7,45.3 36,45.5 C36.2,45.7 36.4,45.8 36.7,46 C36.8,46 36.8,46.1 36.9,46.1 C37.1,46.2 37.4,46.4 37.6,46.5 L37.7,46.5 C37.9,46.6 38.2,46.7 38.4,46.8 C38.5,46.8 38.5,46.8 38.6,46.9 C38.9,47 39.1,47 39.4,47.1 C39.5,47.1 39.5,47.1 39.6,47.1 C39.8,47.1 40,47.2 40.3,47.2 C40.4,47.2 40.4,47.2 40.5,47.2 C40.5,47.2 40.5,47.2 40.6,47.2 L40.6,47.2 L40.6,47.2 L40.6,47.2 C40.8,47.2 41.1,47.2 41.3,47.2 C41.4,47.2 41.4,47.2 41.5,47.2 C41.7,47.2 41.9,47.2 42.1,47.1 C42.2,47.1 42.2,47.1 42.3,47.1 C42.5,47 42.8,47 43,46.9 C43.1,46.9 43.1,46.9 43.2,46.8 C43.3,46.8 43.4,46.7 43.6,46.7 C44,46.6 44.4,46.5 44.8,46.4 L44.8,46.4 C45,46.4 45.1,46.4 45.3,46.3 L45.4,46.3 L45.4,46.3 L45.5,46.3 C46.3,46.3 47.1,46.5 47.9,47.1 C49.1,48 49.9,49.2 50.3,50.6 C50.4,50.5 50.4,50.4 50.5,50.3 C56.9,40.7 54.5,27.5 45,20.7 M12.1,28.6 C10.8,31.2 9.9,34 9.6,37 C6.7,36.2 3.8,35.2 0.9,33.7 L10.3,27.2 L10.3,27.2 C10.6,27.4 10.8,27.6 11.1,27.8 C11.2,27.9 11.2,27.9 11.3,28 C11.5,28.1 11.7,28.3 11.9,28.4 C12,28.5 12,28.6 12.1,28.6 M24.1,48.7 L24.1,48.7 L16.1,60.2 C11.8,52.5 9.9,45.1 10.5,38.3 L10.5,38.3 L10.6,37.7 C10.9,34.5 11.8,31.5 13.3,28.7 L13.3,28.7 C13.6,28.2 13.9,27.7 14.2,27.2 C14.2,27.2 14.2,27.1 14.3,27.1 C14.6,26.6 14.9,26.1 15.2,25.7 C15.5,25.3 15.8,24.8 16.2,24.4 C16.3,24.3 16.4,24.1 16.5,24 C16.7,23.7 17,23.4 17.3,23.2 C17.4,23.1 17.6,22.9 17.7,22.8 C18,22.5 18.4,22.2 18.7,21.8 C18.9,21.6 19.1,21.4 19.4,21.3 C19.6,21.2 19.7,21 19.9,20.9 C23.6,18.2 28,16.8 32.6,16.8 C33.9,16.8 35.1,16.9 36.4,17.1 C36.7,17.1 36.9,17.2 37.2,17.2 C37.4,17.2 37.5,17.3 37.7,17.3 C38,17.4 38.4,17.5 38.7,17.6 C38.9,17.6 39,17.7 39.2,17.8 C39.5,17.9 39.9,18 40.2,18.2 C40.4,18.3 40.5,18.3 40.7,18.4 C41,18.5 41.3,18.7 41.7,18.8 C41.9,18.9 42.1,19 42.3,19.1 C42.6,19.2 42.9,19.4 43.1,19.5 C43.3,19.6 43.5,19.7 43.7,19.9 C43.9,20 44,20.1 44.2,20.2 L42.9,21.8 C39.4,19.5 35.2,18.7 31.1,19.4 C26.8,20.2 23,22.6 20.5,26.2 C18,29.8 17,34.1 17.8,38.5 C18.5,42.6 20.7,46.2 24.1,48.7 M18.1,16.1 C15.9,11.7 15.1,6.1 15.7,0.2 L39.1,16.6 C38.7,16.5 38.4,16.4 38,16.3 C37.9,16.3 37.7,16.2 37.6,16.2 C37.4,16.1 37.1,16.1 36.9,16 C36.7,16 36.5,15.9 36.3,15.9 C36.1,15.9 36,15.8 35.8,15.8 C35.6,15.8 35.3,15.7 35.1,15.7 C35,15.7 34.9,15.7 34.8,15.7 C29.7,15.2 24.5,16.4 20.1,19.3 C20,19.2 20,19.1 19.9,19.1 C19.8,19 19.7,18.8 19.6,18.7 C19.5,18.5 19.4,18.3 19.2,18.1 C19.1,18 19.1,17.9 19,17.7 C18.9,17.5 18.8,17.3 18.6,17.1 C18.5,17 18.5,16.9 18.4,16.8 C18.3,16.5 18.2,16.3 18.1,16.1 M10.9,26.3 C11.1,26.5 11.3,26.6 11.5,26.8 C11.7,27 12,27.2 12.2,27.3 C12.3,27.4 12.4,27.5 12.5,27.5 C12.7,27.1 13,26.7 13.2,26.3 C13.2,26.2 13.3,26.2 13.3,26.1 C13.6,25.7 13.8,25.3 14.1,24.9 C14.4,24.5 14.7,24.1 15,23.7 C15.1,23.6 15.2,23.5 15.3,23.4 C15.6,23 15.9,22.7 16.3,22.3 C16.4,22.2 16.5,22.1 16.6,22 C16.8,21.8 17.1,21.5 17.3,21.3 C17.5,21.2 17.6,21 17.8,20.9 C18.1,20.7 18.4,20.4 18.7,20.2 C18.8,20.1 18.9,20 19,20 C18.9,19.9 18.8,19.8 18.7,19.6 C18.6,19.5 18.6,19.4 18.5,19.3 C18.3,19 18.1,18.7 17.9,18.4 C17.8,18.3 17.8,18.2 17.7,18.1 C17.6,17.9 17.4,17.7 17.3,17.4 C17.2,17.3 17.2,17.1 17.1,17 C17,16.9 17,16.8 16.9,16.7 L3,16.7 C5.2,20.6 7.9,23.9 10.9,26.3 M30.8,23.8 C33.1,24 34.9,26 34.8,28.3 C34.6,30.6 32.6,32.4 30.3,32.3 C28,32.1 26.2,30.1 26.3,27.8 C26.4,25.4 28.4,23.6 30.8,23.8" id="Fill-1_1_"></path>
                </g>
            </g>
        </g>
    </g>
</svg>