<?xml version="1.0" encoding="UTF-8"?>
<svg width="139px" height="36px" viewBox="0 0 139 36" version="1.1" xmlns="http://www.w3.org/2000/svg" xmlns:xlink="http://www.w3.org/1999/xlink">
    <title>spectrum</title>
    <defs>
        <filter id="filter-1">
            <feColorMatrix in="SourceGraphic" type="matrix" values="0 0 0 0 0.211765 0 0 0 0 0.207843 0 0 0 0 0.215686 0 0 0 1.000000 0"></feColorMatrix>
        </filter>
    </defs>
    <g id="Page-1" stroke="none" stroke-width="1" fill="none" fill-rule="evenodd">
        <g id="spectrum" transform="translate(-780.000000, -2433.000000)" filter="url(#filter-1)">
            <g transform="translate(780.000000, 2433.000000)">
                <polygon id="Path" fill="#0076BC" fill-rule="nonzero" points="129.616667 15 129.616667 29 138.616667 22.0019273"></polygon>
                <path d="M23.9521951,33.8042109 C23.9521951,34.9544996 23.068192,36 21.7840161,36 L19.6166667,36 L19.6166667,19.9199145 C19.8690217,15.6420904 21.4043082,12.2325514 27.8184124,12 C30.5926584,12.035303 32.605691,13.1528103 33.7951474,14.5622676 C35.0699205,16.2418207 35.6166667,18.3286189 35.6166667,20.9532271 C35.6166667,23.6652521 34.9789344,25.8611813 33.7033316,27.5405943 C32.4285585,29.1768593 30.7928831,29.9945715 28.795614,29.9945715 C25.7998488,29.9945715 24.3447628,28.7310892 23.9490148,28.4939148 C23.9491531,28.6405903 23.9521951,33.8042109 23.9521951,33.8042109 M31.2179457,21.1471132 C31.2179457,19.4684007 30.9141518,15.9162488 27.5209792,15.9162488 C24.2988549,15.9162488 23.9521951,19.3819644 23.9521951,21.1471132 C23.9521951,25.616442 26.4590139,26.1840915 27.648332,26.1840915 C30.7288609,26.1842316 31.2179457,22.8741573 31.2179457,21.1471132" id="Shape" fill="#77787B" fill-rule="nonzero"></path>
                <path d="M3.18731435,28.1584485 C4.64314106,29.3871654 6.82947404,30 9.74421093,30 C12.5731708,30 14.7595038,29.4084982 16.3018083,28.221893 C17.844253,26.9510645 18.6166667,25.1722649 18.6166667,22.8853555 C18.6166667,21.8270244 18.406569,20.8504231 17.9092865,19.9617852 C17.4537713,19.1485048 16.6803765,18.3810763 15.7453789,17.9182642 C15.1519477,17.6256994 14.7907591,17.4981179 14.0609536,17.2760623 C13.2734028,17.0375222 9.35106624,15.9800223 8.95497822,15.8769597 C6.77018698,15.3505646 5.38261749,14.6316198 5.37294655,13.3537266 C5.48605449,10.882856 7.81590981,10.6854579 9.102425,10.6854579 C10.4290255,10.6854579 11.4804949,10.9612612 12.2513668,11.5114825 C13.6357127,12.5761857 13.4816784,13.9284669 13.4816784,13.9284669 L17.8441128,13.9284669 C17.7583358,11.810281 16.9867631,10.0932635 15.5302356,8.77976933 C14.1161761,7.59385672 12.1006964,7 9.48758066,7 C6.70122898,7 4.58049019,7.57238534 3.12312175,8.71549372 C1.6657533,9.90223748 0.937489553,11.5328154 0.937489553,13.6081971 C0.943936846,16.2741109 2.222463,17.8460927 3.38073313,18.5642063 C4.08404866,18.9803355 5.68269691,19.6185202 7.75199752,20.0252296 L9.48996335,20.3993857 C12.5042128,21.1255338 14.2343298,22.0452013 14.1805089,23.5203541 C14.1477118,24.4089921 13.8381016,25.0883187 13.1514649,25.5537628 C12.5241153,25.9777878 11.4573687,26.2512362 10.1307682,26.2512362 C8.62924979,26.2512362 7.4519181,25.9563164 6.59526913,25.3625982 C5.78038741,24.8544885 5.28618841,23.9650194 5.11617611,22.6943295 L0.616666667,22.6943295 C0.745051885,25.1081278 1.60156069,26.9305628 3.18731435,28.1584485" id="Path" fill="#77787B" fill-rule="nonzero"></path>
                <path d="M44.5841345,15.768572 C47.3910146,15.7304598 47.8268178,18.1084332 47.9140924,19.2784346 L41.253549,19.2784346 C41.253549,19.2784346 41.1973698,15.8309116 44.5841345,15.768572 M44.780609,26.2317113 C43.6490298,26.1748973 41.4947866,25.9544417 41.2976003,22.2028714 L52.6133921,22.20528 C52.6151006,22.0900934 52.6133921,20.8553437 52.6166667,20.8536436 C52.5383616,18.0263999 51.8563958,15.920029 50.5259218,14.3390111 C49.0886682,12.7791036 47.0648385,12 44.4528667,12 C41.9728746,12 40.034611,12.8019143 38.6422048,14.4039009 C37.2922257,15.9631 36.6166667,18.130252 36.6166667,20.9022401 C36.6166667,23.8055665 37.312585,26.0360499 38.7074115,27.595249 C40.100672,29.1987941 42.0380813,30 44.5180735,30 C46.565537,30 48.2626211,29.5029832 49.6117459,28.5056909 C50.9610131,27.553028 51.8815958,26.1618626 52.3608227,24.3415456 L48.4289125,24.3423957 C47.8505941,25.9754105 46.3717676,26.3110527 44.780609,26.2317113" id="Shape" fill="#77787B" fill-rule="nonzero"></path>
                <path d="M118.133711,28.9997288 L113.816864,28.9997288 L113.816864,18.3747586 C113.816864,17.1496141 113.312569,15.4992754 110.8758,15.4992754 C108.484912,15.4992754 107.997857,17.3753628 107.997857,18.3747586 L107.997857,29 L103.616667,29 L103.616667,19.2499588 C103.616667,16.4171848 104.457882,14.6861731 105.838144,13.5627172 C107.205374,12.4492945 108.955542,12.0838934 110.749963,12 C111.709414,12 112.649316,12.104909 113.566142,12.3120826 C114.484326,12.5223747 115.318618,12.9373999 116.069699,13.5628528 C116.696436,13.0220048 117.435435,12.6357236 118.291176,12.4060429 C119.145695,12.1778537 120.03062,12.004983 120.950433,12.0002375 C126.293245,11.972307 128.437347,14.4155458 128.615309,15.1992262 C128.615309,15.2108865 128.616667,29 128.616667,29 L126.14406,29 C125.518952,29 124.017198,28.5756195 124.017198,26.8756568 L124.017198,18.3747586 C124.028057,17.1706297 123.605481,15.4992754 121.075319,15.4992754 C118.570948,15.4992754 118.133711,17.3753628 118.133711,18.3747586 L118.133711,28.9997288 L118.133711,28.9997288 Z" id="Path" fill="#77787B" fill-rule="nonzero"></path>
                <path d="M64.5231164,24.3480207 L68.6166667,24.3480207 C68.6166667,24.3480207 67.5055757,30 61.3215343,30 C55.1387147,30 53.6166667,24.8223721 53.6166667,21.4194532 C53.6166667,18.0173844 54.1955635,12.2048793 61.0812323,12.0012823 C67.4435316,11.9015381 68.492307,17.6541117 68.492307,17.6541117 L64.1330669,17.6541117 C64.1330669,17.6541117 63.7112488,15.7098093 61.1162594,15.7707325 C58.5222203,15.8323642 57.8438086,18.3749898 57.8438086,20.7910934 C57.8438086,23.2080471 58.4202617,26.2315415 61.3011697,26.2315415 C64.039933,26.3189593 64.2815925,24.7729251 64.5231164,24.3480207" id="Path" fill="#77787B" fill-rule="nonzero"></path>
                <path d="M87.6166667,13 L92.1416393,13 L92.1416393,23.67776 C92.1416393,23.67776 91.9787042,26.5656989 95.1163325,26.5672054 C98.0748167,26.5688487 98.1505054,23.9834257 98.1530424,23.8008753 L98.1530424,15.0721455 C98.1530424,15.0721455 98.3055474,13 100.267252,13 L102.615998,13 C102.615998,13 102.613461,22.8229366 102.615998,22.9168823 C102.58358,23.4575491 103.207836,30.0264874 95.1163325,30 C87.0996719,30 87.6675486,23.3542911 87.6166667,22.9631704 L87.6166667,13 L87.6166667,13 Z" id="Path" fill="#77787B" fill-rule="nonzero"></path>
                <path d="M74.001186,17.5616428 L76.6166667,17.5616428 L76.6141698,13.0671785 L74.0064572,13.0671785 L74.0064572,10.1803968 C74.0064572,9.38899976 73.569226,8 71.9067208,8 L69.6166667,8 L69.6166667,26.856224 C69.6166667,28.8222725 70.3733597,29.9984619 72.0115897,29.9984619 C72.0300388,29.9984619 73.9327993,30 74.0018796,30 L74.001186,17.5616428 Z" id="Path" fill="#77787B" fill-rule="nonzero"></path>
                <path d="M80.8173819,30 L80.8173819,21.2450527 C80.8173819,19.9678948 81.0959293,19.0302628 81.6576034,18.4338285 C82.2169225,17.8375336 83.0763768,17.5385502 84.2375363,17.5385502 L85.6166667,17.5385502 L85.6166667,13.0019717 C85.6166667,13.0019717 83.4441536,12.9445713 81.8664159,13.4491929 C80.8534923,13.7736721 79.9564884,14.2161563 79.1973845,14.853969 C78.3947126,15.5363645 77.7659202,16.4420919 77.3061664,17.5703154 C76.8464127,18.6992355 76.6166667,20.0943985 76.6166667,21.7559437 L76.6166667,29.9997214 L80.8173819,29.9997214 L80.8173819,30 Z" id="Path" fill="#77787B" fill-rule="nonzero"></path>
                <rect id="Rectangle" x="0" y="0" width="139" height="10"></rect>
            </g>
        </g>
    </g>
</svg>