<?xml version="1.0" encoding="UTF-8"?>
<svg width="77px" height="37px" viewBox="0 0 77 37" version="1.1" xmlns="http://www.w3.org/2000/svg" xmlns:xlink="http://www.w3.org/1999/xlink">
    <title>sysco</title>
    <defs>
        <filter id="filter-1">
            <feColorMatrix in="SourceGraphic" type="matrix" values="0 0 0 0 0.211765 0 0 0 0 0.207843 0 0 0 0 0.215686 0 0 0 1.000000 0"></feColorMatrix>
        </filter>
    </defs>
    <g id="Page-1" stroke="none" stroke-width="1" fill="none" fill-rule="evenodd">
        <g id="sysco" transform="translate(-668.000000, -2430.000000)" filter="url(#filter-1)">
            <g transform="translate(668.000000, 2430.000000)">
                <g id="g85" transform="translate(38.715500, 20.909880) scale(-1, 1) rotate(-180.000000) translate(-38.715500, -20.909880) translate(0.715500, 5.409880)" fill-rule="nonzero">
                    <g id="g87-Clipped" transform="translate(0.000000, 0.000000)">
                        <g id="g87" transform="translate(0.000000, 0.250000)">
                            <g id="g93" transform="translate(0.728250, 5.889875)" fill="#0081C6">
                                <path d="M13.75,18.75 C12.33375,19.3525 10.3775,19.7825 8.79875,19.7825 C7.25375,19.7825 5.2575,19.11625 5.2575,16.7075 C5.2575,12.87125 15.11,14.4875 15.11,7.06875 C15.11,2.21875 11.21375,0.38 6.67375,0.38 C4.22625,0.38 3.1325,0.6975 0.91,1.235 L0.905,5.23 C2.45125,4.40625 4.645,3.86625 6.41625,3.86625 C8.12375,3.86625 10.40875,4.7225 10.40875,6.72 C10.40875,10.93625 0.55625,9.19375 0.55625,16.51625 C0.55625,21.4625 4.4525,23.27 8.4125,23.27 C10.345,23.27 12.1475,23.01625 13.79,22.4775 L13.75,18.75 Z" id="path95"></path>
                            </g>
                            <g id="g97" transform="translate(29.046375, 5.363250)" fill="#0081C6">
                                <path d="M11.25,13.75 C9.96875,14.18125 8.8075,14.4275 7.275,14.4275 C6.15,14.4275 4.805,14.0275 4.805,12.6725 C4.805,10.14875 12.09,11.74875 12.09,6.02375 C12.09,2.33 8.745,0.8525 5.33625,0.8525 C3.7425,0.8525 2.11625,1.13 0.585,1.53 L0.835,4.91625 C2.1475,4.26875 3.52375,3.86875 4.96125,3.86875 C6.025,3.86875 7.7125,4.26875 7.7125,5.80875 C7.7125,8.9175 0.42875,6.79375 0.42875,12.51875 C0.42875,15.935 3.46,17.44375 6.74375,17.44375 C8.71375,17.44375 9.995,17.13625 11.30875,16.85875 L11.25,13.75 Z" id="path99"></path>
                            </g>
                            <g id="g101" transform="translate(41.061875, 5.270875)" fill="#0081C6">
                                <path d="M12.5,13.75 C11.75,14.08875 10.9375,14.335 9.65625,14.335 C7.06,14.335 5.40375,12.30375 5.40375,9.3175 C5.40375,6.39375 6.81,4.14625 9.74875,4.14625 C10.9375,4.14625 12.25,4.5775 12.96875,4.885 L13.15625,1.46875 C11.9375,1.1 10.68625,0.945 8.9675,0.945 C3.68375,0.945 1.02625,4.485 1.02625,9.3175 C1.02625,13.90375 3.7775,17.53625 8.81125,17.53625 C10.49875,17.53625 11.71875,17.35125 12.87625,17.0125 L12.5,13.75 Z" id="path103"></path>
                            </g>
                            <g id="g105" transform="translate(54.352000, 5.667500)" fill="#0081C6">
                                <path d="M8.75,3.75 C11.97,3.75 12.81375,6.58125 12.81375,9.22875 C12.81375,11.66 11.50125,13.9375 8.75,13.9375 C6.03,13.9375 4.7175,11.59875 4.7175,9.22875 C4.7175,6.6125 5.56125,3.75 8.75,3.75 M8.75,17.13875 C13.5325,17.13875 17.19,13.96875 17.19,8.73625 C17.19,4.18125 14.09625,0.54875 8.75,0.54875 C3.43625,0.54875 0.34,4.18125 0.34,8.73625 C0.34,13.96875 3.99875,17.13875 8.75,17.13875" id="path107"></path>
                            </g>
                            <g id="g109" transform="translate(17.444625, 0.152625)" fill="#0081C6">
                                <polygon id="path111" points="12.5 22.5 8.2475 22.5 0.24875 0.7225 4.09125 0.7225"></polygon>
                            </g>
                            <g id="g113" transform="translate(11.314625, 9.294375)" fill="#6DB33F">
                                <path d="M1.25,13.75 C3.02625,11.95125 4.79625,9.76 6.07875,7.19 C7.22625,4.88875 7.80625,2.6475 8.22125,0.38875 C8.23875,0.31 8.29125,0.31625 8.32125,0.3775 C9.84875,3.04625 10.78375,6.67875 9.41625,9.41625 C7.98375,12.28875 4.54125,13.61 1.3075,13.87625 C1.195,13.88125 1.175,13.8225 1.25,13.75" id="path115"></path>
                            </g>
                            <g id="g193" transform="translate(70.213500, 19.960750)" fill="#0081C6">
                                <polygon id="path195" points="1.25 2.5 0.67625 2.5 0.67625 2.7075 2.07375 2.7075 2.07375 2.5 1.49625 2.5 1.49625 0.81875 1.25 0.81875"></polygon>
                            </g>
                            <g id="g197" transform="translate(71.589125, 20.358875)" fill="#0081C6">
                                <path d="M2.5,1.25 C2.48625,1.51 2.47,1.8325 2.47,2.065 L2.46375,2.065 C2.39625,1.84625 2.32125,1.60625 2.225,1.3475 L1.89125,0.43125 L1.7075,0.43125 L1.39875,1.33125 C1.30875,1.5975 1.23625,1.84125 1.18375,2.065 L1.1775,2.065 C1.1725,1.83 1.1575,1.51375 1.14125,1.23 L1.09125,0.42125 L0.85875,0.42125 L0.99,2.30875 L1.30125,2.30875 L1.6225,1.39625 C1.70125,1.16375 1.76375,0.9525 1.81375,0.7575 L1.81875,0.7575 C1.87,0.9475 1.93625,1.1575 2.02125,1.39625 L2.3575,2.30875 L2.66875,2.30875 L2.78625,0.42125 L2.545,0.42125 L2.5,1.25 Z" id="path199"></path>
                            </g>
                        </g>
                    </g>
                </g>
                <rect id="Rectangle" x="3" y="0" width="67" height="11"></rect>
            </g>
        </g>
    </g>
</svg>