<?xml version="1.0" encoding="UTF-8"?>
<svg width="198px" height="49px" viewBox="0 0 198 49" version="1.1" xmlns="http://www.w3.org/2000/svg" xmlns:xlink="http://www.w3.org/1999/xlink">
    <title>university-of-south-florida-usf-seeklogo.com</title>
    <defs>
        <filter id="filter-1">
            <feColorMatrix in="SourceGraphic" type="matrix" values="0 0 0 0 0.211765 0 0 0 0 0.207843 0 0 0 0 0.215686 0 0 0 1.000000 0"></feColorMatrix>
        </filter>
    </defs>
    <g id="Page-1" stroke="none" stroke-width="1" fill="none" fill-rule="evenodd">
        <g id="university-of-south-florida-usf-seeklogo.com" transform="translate(-114.000000, -2430.000000)" filter="url(#filter-1)">
            <g transform="translate(114.000000, 2430.000000)">
                <path d="M76,10 L78.6122449,10 L78.6122449,21.2021277 C78.6122449,22.287234 79.0693878,22.8297872 79.9836735,22.8297872 C80.8979592,22.8297872 81.3877551,22.287234 81.3877551,21.2021277 L81.3877551,10 L84,10 L84,21.0744681 C84,23.6276596 82.4979592,25 80.0163265,25 C77.5346939,25 76.0326531,23.5957447 76.0326531,21.0744681 L76,10 Z" id="Path" fill="#006848" fill-rule="nonzero"></path>
                <polygon id="Path" fill="#006848" fill-rule="nonzero" points="87 25 87 10 89.4262295 10 92.6065574 18.5668103 92.6393443 18.5668103 92.6393443 10 95 10 95 25 92.7377049 25 89.3934426 15.625 89.3606557 15.625 89.3606557 25"></polygon>
                <polygon id="Path" fill="#006848" fill-rule="nonzero" points="98 25 98 10 101 10 101 25"></polygon>
                <polygon id="Path" fill="#006848" fill-rule="nonzero" points="109.437956 10 112 10 108.813869 25 106.186131 25 103 10 105.562044 10 107.467153 20.4094828 107.5 20.4094828"></polygon>
                <polygon id="Path" fill="#006848" fill-rule="nonzero" points="114 24.9356223 114 10 120.716216 10 120.716216 12.2532189 116.490991 12.2532189 116.490991 16.1158798 119.738739 16.1158798 119.738739 18.3690987 116.490991 18.3690987 116.490991 22.7467811 121 22.7467811 121 25 114 25"></polygon>
                <path d="M126.48062,25 L124,25 L124,10 L127.472868,10 C130.232558,10 131.627907,11.2284483 131.627907,14.4288793 C131.627907,16.8534483 130.728682,17.8232759 129.891473,18.2112069 L132,25 L129.488372,25 L127.751938,18.7931034 C127.317829,18.825431 126.914729,18.8577586 126.48062,18.8577586 L126.48062,25 L126.48062,25 Z M126.48062,16.7241379 L127.348837,16.7241379 C128.682171,16.7241379 129.178295,16.2068966 129.178295,14.4288793 C129.178295,12.6508621 128.682171,12.1336207 127.348837,12.1336207 L126.48062,12.1336207 L126.48062,16.7241379 Z" id="Shape" fill="#006848" fill-rule="nonzero"></path>
                <path d="M139.398374,14.0251572 C139.300813,12.6834382 138.617886,12.3144654 138.03252,12.3144654 C137.186992,12.3144654 136.731707,12.884696 136.731707,13.8574423 C136.731707,16.5073375 142,17.7819706 142,22.0083857 C142,24.557652 140.341463,26 137.902439,26 C135.463415,26 134.130081,24.0209644 134,21.672956 L136.471545,21.3039832 C136.569106,22.8805031 137.186992,23.6519916 138.03252,23.6519916 C138.943089,23.6519916 139.528455,23.148847 139.528455,22.2431866 C139.528455,19.1572327 134.260163,18.3522013 134.260163,13.8909853 C134.260163,11.442348 135.723577,10 138.260163,10 C140.373984,10 141.642276,11.5765199 141.837398,13.7568134 L139.398374,14.0251572 Z" id="Path" fill="#006848" fill-rule="nonzero"></path>
                <polygon id="Path" fill="#006848" fill-rule="nonzero" points="145 25 145 10 148 10 148 25"></polygon>
                <polygon id="Path" fill="#006848" fill-rule="nonzero" points="152.632479 12.2580645 150 12.2580645 150 10 158 10 158 12.2580645 155.367521 12.2580645 155.367521 25 152.632479 25"></polygon>
                <polygon id="Path" fill="#006848" fill-rule="nonzero" points="163.802198 25 161.164835 25 161.164835 18.7741935 158 10 160.67033 10 162.516484 15.7096774 162.549451 15.7096774 164.32967 10 167 10 163.835165 18.7419355"></polygon>
                <path d="M174,13.5 C174,12.1184211 174.769231,11 176.5,11 C178.230769,11 179,12.1184211 179,13.5 L179,18.5 C179,19.8815789 178.230769,21 176.5,21 C174.769231,21 174,19.8815789 174,18.5 L174,13.5 Z M175.634615,18.4671053 C175.634615,19.1907895 175.826923,19.5526316 176.5,19.5526316 C177.173077,19.5526316 177.365385,19.1907895 177.365385,18.4671053 L177.365385,13.5328947 C177.365385,12.8092105 177.141026,12.4473684 176.5,12.4473684 C175.858974,12.4473684 175.634615,12.8092105 175.634615,13.5328947 L175.634615,18.4671053 Z" id="Shape" fill="#006848" fill-rule="nonzero"></path>
                <polygon id="Path" fill="#006848" fill-rule="nonzero" points="181 21 181 11 186 11 186 12.4915254 182.795775 12.4915254 182.795775 15.0677966 185.190141 15.0677966 185.190141 16.559322 182.795775 16.559322 182.795775 21"></polygon>
                <path d="M80.398374,35 C80.300813,33.6554622 79.6178862,33.2857143 79.0325203,33.2857143 C78.1869919,33.2857143 77.7317073,33.8571429 77.7317073,34.8319328 C77.7317073,37.487395 83,38.7647059 83,43 C83,45.5546218 81.3414634,47 78.902439,47 C76.4634146,47 75.1300813,45.0168067 75,42.697479 L77.4715447,42.3277311 C77.5691057,43.907563 78.1869919,44.6806723 79.0325203,44.6806723 C79.9430894,44.6806723 80.5284553,44.1764706 80.5284553,43.2689076 C80.5284553,40.1764706 75.2601626,39.3697479 75.2601626,34.8991597 C75.2601626,32.4453782 76.7235772,31 79.2601626,31 C81.3739837,31 82.6097561,32.5798319 82.8373984,34.7983193 L80.398374,35 Z" id="Path" fill="#006848" fill-rule="nonzero"></path>
                <path d="M86,34.9832636 C86,32.8075314 87.2786885,31 90,31 C92.7540984,31 94,32.7740586 94,34.9832636 L94,43.0167364 C94,45.2259414 92.7540984,47 90,47 C87.2459016,47 86,45.2259414 86,43.0167364 L86,34.9832636 Z M88.5901639,42.916318 C88.5901639,44.0878661 88.9180328,44.623431 89.9672131,44.623431 C91.0163934,44.623431 91.3442623,44.0543933 91.3442623,42.916318 L91.3442623,35.0502092 C91.3442623,33.8786611 91.0163934,33.3430962 89.9672131,33.3430962 C88.9180328,33.3430962 88.5901639,33.9121339 88.5901639,35.0502092 L88.5901639,42.916318 Z" id="Shape" fill="#006848" fill-rule="nonzero"></path>
                <path d="M96,31 L98.6229508,31 L98.6229508,42.1702128 C98.6229508,43.2553191 99.0819672,43.7978723 100,43.7978723 C100.918033,43.7978723 101.377049,43.2553191 101.377049,42.1702128 L101.377049,31 L104,31 L104,42.0744681 C104,44.6276596 102.491803,46 100,46 C97.5081967,46 96,44.5957447 96,42.0744681 L96,31 Z" id="Path" fill="#006848" fill-rule="nonzero"></path>
                <polygon id="Path" fill="#006848" fill-rule="nonzero" points="108.632479 33.2306034 106 33.2306034 106 31 114 31 114 33.2306034 111.367521 33.2306034 111.367521 46 108.632479 46"></polygon>
                <polygon id="Path" fill="#006848" fill-rule="nonzero" points="116 46 116 31 118.612245 31 118.612245 37.1099138 121.387755 37.1099138 121.387755 31 124 31 124 46 121.387755 46 121.387755 39.3405172 118.612245 39.3405172 118.612245 46"></polygon>
                <polygon id="Path" fill="#006848" fill-rule="nonzero" points="132 46 132 31 139 31 139 33.2306034 134.522523 33.2306034 134.522523 37.1099138 137.896396 37.1099138 137.896396 39.3405172 134.522523 39.3405172 134.522523 46"></polygon>
                <polygon id="Path" fill="#006848" fill-rule="nonzero" points="142 46 142 31 144.731707 31 144.731707 43.7693966 149 43.7693966 149 46"></polygon>
                <path d="M151,34.9832636 C151,32.8075314 152.245902,31 155,31 C157.754098,31 159,32.7740586 159,34.9832636 L159,43.0167364 C159,45.2259414 157.754098,47 155,47 C152.245902,47 151,45.2259414 151,43.0167364 L151,34.9832636 Z M153.590164,42.916318 C153.590164,44.0878661 153.918033,44.623431 154.967213,44.623431 C156.016393,44.623431 156.344262,44.0543933 156.344262,42.916318 L156.344262,35.0502092 C156.344262,33.8786611 156.016393,33.3430962 154.967213,33.3430962 C153.918033,33.3430962 153.590164,33.9121339 153.590164,35.0502092 L153.590164,42.916318 Z" id="Shape" fill="#006848" fill-rule="nonzero"></path>
                <path d="M164.490272,46 L162,46 L162,31 L165.486381,31 C168.256809,31 169.657588,32.2284483 169.657588,35.4288793 C169.657588,37.8534483 168.754864,38.8232759 167.914397,39.2112069 L170,46 L167.478599,46 L165.735409,39.7931034 C165.299611,39.825431 164.894942,39.8577586 164.459144,39.8577586 L164.490272,46 Z M164.490272,37.7241379 L165.361868,37.7241379 C166.700389,37.7241379 167.198444,37.2068966 167.198444,35.4288793 C167.198444,33.6508621 166.700389,33.1336207 165.361868,33.1336207 L164.490272,33.1336207 L164.490272,37.7241379 Z" id="Shape" fill="#006848" fill-rule="nonzero"></path>
                <polygon id="Path" fill="#006848" fill-rule="nonzero" points="173 46 173 31 176 31 176 46"></polygon>
                <path d="M179,31 L182.868852,31 C185.557377,31 187,32.4578834 187,35.5356371 L187,41.4643629 C187,44.5421166 185.557377,46 182.868852,46 L179,46 L179,31 Z M181.622951,43.8941685 L182.540984,43.8941685 C183.918033,43.8941685 184.409836,43.3758099 184.409836,41.7883369 L184.409836,35.2116631 C184.409836,33.6241901 183.918033,33.1058315 182.540984,33.1058315 L181.622951,33.1058315 L181.622951,43.8941685 Z" id="Shape" fill="#006848" fill-rule="nonzero"></path>
                <path d="M191.557196,46 L189,46 L191.856089,31 L195.143911,31 L198,46 L195.442804,46 L194.97786,42.6702586 L192.088561,42.6702586 L191.557196,46 Z M192.420664,40.4073276 L194.546125,40.4073276 L193.483395,33.9741379 L193.450185,33.9741379 L192.420664,40.4073276 Z" id="Shape" fill="#006848" fill-rule="nonzero"></path>
                <rect id="Rectangle" fill="#D5CA9F" fill-rule="nonzero" x="68" y="10" width="1" height="36"></rect>
                <path d="M53.8908272,7.61283186 C53.8908272,6.55088496 54.853686,3.29867257 54.853686,3.29867257 C54.853686,3.29867257 48.8441193,6.84955752 48.8441193,10.8650442 C48.8441193,13.6858407 50.6370287,15.3119469 50.6370287,16.0420354 C50.6370287,16.8716814 46.9848059,18.5641593 36.1277434,18.5641593 L28.1924592,31.7057522 L25.4698931,33.4646018 L22.1828925,39.670354 L16.0405177,39.670354 L19.7923467,33.5641593 L18.895892,31.6725664 L27.893641,18.1659292 C13.815982,18.1659292 11.9898706,16.4734513 11.9898706,16.1747788 C11.9898706,15.3783186 18.1322454,12.590708 18.1322454,7.84513274 C18.1322454,5.65486726 15.9409116,3 15.9409116,3 C14.8784468,12.1924779 1,10.0022124 1,20.4225664 C1,24.7035398 6.21271806,26.5287611 11.3258301,26.8938053 L9.56612268,29.5154867 C8.90208216,30.5110619 9.43331458,31.6061947 10.2301632,33.2323009 L6.7771525,38.7743363 C6.7771525,38.7743363 5.18345526,39.9026549 4.851435,40.5995575 C4.12099043,42.0265487 5.6150816,44.1172566 7.97242544,48 L24.8058526,48 C30.450197,44.8141593 32.7743388,43.4867257 32.7743388,42.159292 L32.6747327,40.7654867 L35.9285312,35.1238938 C36.7917839,34.7256637 38.8503095,33.6969027 39.7467642,32.2699115 L42.7017445,27.4579646 C51.1350591,27.2920354 60,23.9070796 60,16.6725664 C60,11.8274336 53.9240293,11.1969027 53.8908272,7.61283186 M42.070906,26.3960177 L38.8171075,31.7057522 C37.9206528,33.1659292 35.1648846,34.2942478 35.1648846,34.2942478 L31.5790658,40.5331858 L31.7118739,42.159292 C31.745076,43.0221239 26.1671356,46.0088496 24.4738323,46.9712389 L8.63646595,46.9712389 C8.07203151,45.9756637 5.34946539,42.0929204 5.84749578,41.130531 C6.04670793,40.7654867 6.81035453,40.2013274 7.64040518,39.5707965 L11.4918402,33.3650442 C10.6949916,31.7057522 10.1305571,30.710177 10.4957794,30.1792035 L13.3511536,25.9646018 C10.1637591,25.9646018 2.12886888,25.2013274 2.12886888,20.5221239 C2.12886888,11.8606195 14.3804164,12.2588496 16.372538,5.62168142 C16.8041643,6.31858407 17.0697805,7.11504425 17.1029826,7.91150442 C17.1029826,12.3584071 10.9606078,14.4159292 10.9606078,16.2079646 C10.9606078,18.7300885 19.4935284,19.2942478 25.9347214,19.2942478 L17.700619,31.6061947 L18.5970737,33.5309735 L14.1480023,40.7654867 L22.8801351,40.7654867 L26.3663478,34.2278761 L29.0557119,32.5022124 L36.7917839,19.659292 C47.2836241,19.659292 51.7658976,17.9668142 51.7658976,16.0752212 C51.7658976,14.8141593 49.9729882,13.5199115 49.9729882,10.8982301 C49.9729882,8.27654867 53.0607766,6.0199115 53.0607766,6.0199115 C51.4670793,11.960177 58.9375352,11.960177 58.9375352,16.7057522 C58.9043331,23.3761062 49.9397862,26.3960177 42.070906,26.3960177" id="Shape" fill="#FFFFFF" fill-rule="nonzero"></path>
                <path d="M54.9,7.58922559 C54.9,5.70841751 56.7365591,0.131986532 56.7365591,0.131986532 C56.7365591,0.131986532 47.3569892,5.34545455 47.3569892,10.8228956 C47.4225806,12.5387205 47.9473118,14.1885522 48.8655914,15.640404 C46.1107527,16.9272727 40.633871,17.1912458 35.3209677,17.1912458 L27.2860215,30.6208754 L24.5639785,32.369697 L21.5139785,38.1441077 L18.4639785,38.1441077 L21.3172043,33.4585859 L20.4317204,31.6107744 L30.2704301,16.7622896 C19.1526882,16.7622896 16.8569892,16.3993266 14.3317204,15.7723906 C14.3317204,15.7723906 19.4806452,12.4727273 19.4806452,7.82020202 C19.4806452,4.75151515 15.6107527,0 15.6107527,0 L14.1677419,4.85050505 C12.6263441,10.1299663 0,10.0639731 0,20.3589226 C0,24.8464646 4.26344086,27.0902357 9.2483871,27.8491582 L8.69086022,28.6740741 C7.77258065,30.0929293 8.23172043,31.5117845 8.95322581,33.0296296 L6.1655914,37.7481481 C6.1655914,37.7481481 4.55860215,38.8700337 4.09946237,39.826936 C3.1155914,41.806734 4.39462366,43.8525253 7.60860215,49 L25.3510753,49 C32.3037634,45.040404 34.1075269,44.0175084 34.1075269,41.7737374 C34.1075269,41.7737374 34.0747312,41.2787879 34.0419355,40.8498316 L36.8623656,35.9333333 C37.9774194,35.3723906 39.8795699,34.2835017 40.7978495,32.7656566 L43.355914,28.5750842 C52.0795699,28.2121212 61,24.4505051 61,16.5973064 C60.9344086,11.2848485 54.9327957,9.96498316 54.9,7.58922559 M42.5688172,27.3212121 L39.65,32.1057239 C38.7973118,33.5245791 36.7311828,34.5804714 35.8784946,34.9434343 L32.6645161,40.552862 L32.7629032,41.9387205 C32.7629032,43.2585859 30.4672043,44.5784512 24.8919355,47.7461279 L8.29731183,47.7461279 C5.9688172,43.8855219 4.49301075,41.806734 5.21451613,40.3878788 C5.54247312,39.7279461 7.11666667,38.573064 7.11666667,38.573064 L10.5274194,33.0626263 C9.74032258,31.4457912 9.2155914,30.3569024 9.87150538,29.3340067 L11.6096774,26.7272727 C6.52634409,26.3643098 1.41021505,24.5824916 1.41021505,20.3259259 C1.41021505,9.96498316 15.1516129,12.1427609 16.1682796,3.0026936 C16.1682796,3.0026936 18.3,5.64242424 18.3,7.82020202 C18.3,12.5387205 12.2327957,15.3104377 12.2327957,16.1023569 C12.2327957,16.3993266 14.0365591,18.0821549 27.9419355,18.0821549 L19.0543011,31.5117845 L19.9397849,33.3925926 L16.233871,39.4639731 L22.3010753,39.4639731 L25.5478495,33.2936027 L28.2370968,31.5447811 L36.0752688,18.4781145 C46.8322581,18.4781145 50.4069892,16.8282828 50.4069892,15.9703704 C50.4069892,15.2774411 48.6360215,13.6276094 48.6360215,10.8228956 C48.6360215,6.83030303 54.572043,3.2996633 54.572043,3.2996633 C54.572043,3.2996633 53.6209677,6.53333333 53.6209677,7.58922559 C53.6209677,11.152862 59.6226725,11.7468013 59.6226725,16.5973064 C59.6553763,23.823569 50.8989247,27.1892256 42.5688172,27.3212121" id="Shape" fill="#D5CA9F" fill-rule="nonzero"></path>
                <path d="M53.2722572,6.42776886 C53.2722572,6.42776886 50.2284292,8.69823435 50.2284292,11.2648475 C50.2284292,13.8314607 51.9958132,15.1476726 51.9958132,16.3980738 C51.9958132,18.2736758 47.6100824,19.9518459 37.2348835,19.9518459 L29.6089487,32.6861958 L26.9578726,34.3972713 L23.5212925,40.8796148 L14.8807483,40.8796148 L19.2664791,33.70626 L18.382787,31.7977528 L26.4669326,19.5569823 C20.1174418,19.5569823 11.7060029,18.9975923 11.7060029,16.4967897 C11.7060029,14.6869984 17.7609297,12.6797753 17.7609297,8.27046549 C17.7282004,7.44783307 17.4663657,6.65810594 17.0408843,6 C15.0771243,12.5810594 3,12.1861958 3,20.7744783 C3,25.4141252 10.9204989,26.170947 14.0625149,26.170947 L11.2477922,30.3499197 C10.8877695,30.8764045 11.4441682,31.8635634 12.2296722,33.5088283 L8.43306947,39.6621188 C7.64756545,40.3202247 6.86206143,40.8796148 6.66568542,41.2086677 C6.17474541,42.1629213 8.85855081,46.0457464 9.41494949,47 L25.0595712,47 C26.7287673,46.0128411 32.2600247,43.0842697 32.1945661,42.2287319 L32.0636487,40.6163724 L35.5984168,34.4301766 C35.5984168,34.4301766 38.3149515,33.3113965 39.1986436,31.8635634 L42.4061183,26.5987159 C50.1629705,26.5987159 59,23.6043339 59,16.9574639 C59.0326201,12.317817 51.7012492,12.317817 53.2722572,6.42776886" id="Path" fill="#006848" fill-rule="nonzero"></path>
                <path d="M32.0268547,47 C31.4694193,47 31,47.4411765 31,48 C31,48.2647059 31.0880161,48.5294118 31.2933871,48.7058824 C31.4694193,48.9117647 31.7334676,49 31.997516,49 C32.2615644,49 32.5256127,48.8823529 32.7016449,48.7058824 C32.9070159,48.5294118 32.995032,48.2647059 32.995032,48 C33.0537094,47.4411765 32.5842901,47 32.0268547,47 M32.6723062,48.6470588 C32.3495805,49 31.7921451,49 31.4400806,48.6764706 C31.4400806,48.6764706 31.4400806,48.6764706 31.4107419,48.6470588 C31.0586774,48.2941176 31.0586774,47.7352941 31.4107419,47.3823529 C31.7628064,47.0294118 32.2909031,47.0294118 32.6429675,47.3823529 C32.6429675,47.3823529 32.6429675,47.3823529 32.6429675,47.3823529 C32.995032,47.7352941 32.995032,48.2941176 32.6723062,48.6470588" id="Shape" fill="#FFFFFF" fill-rule="nonzero"></path>
                <path d="M32.9909114,47.2971352 C32.9909114,47.193007 32.9225727,47.0888789 32.7858953,47.0368149 C32.6833872,47.0107828 32.5467097,46.9847508 32.4442017,47.0107828 L32,47.0107828 L32,48 L32.2391855,48 L32.2391855,47.6095195 L32.4100323,47.6095195 C32.5125404,47.6095195 32.5808791,47.6095195 32.6492178,47.6355516 C32.7517259,47.6876156 32.7858953,47.7657117 32.7858953,47.8698398 L32.7858953,47.973968 L32.7858953,47.973968 L32.7858953,47.973968 L32.9909114,47.973968 L32.9909114,47.973968 C32.9909114,47.9479359 32.9909114,47.9479359 32.9909114,47.9219039 C32.9909114,47.8958719 32.9909114,47.8698398 32.9909114,47.8438078 L32.9909114,47.7657117 C32.9909114,47.7136477 32.9567421,47.6615836 32.9225727,47.6095195 C32.854234,47.5574555 32.7858953,47.5053914 32.7175565,47.5053914 C32.7858953,47.5053914 32.854234,47.5053914 32.8884033,47.4793594 C32.9567421,47.4533273 33.0250808,47.4012633 32.9909114,47.2971352 M32.6492178,47.4793594 C32.5808791,47.5053914 32.5125404,47.5053914 32.4442017,47.5053914 L32.2391855,47.5053914 L32.2391855,47.140943 L32.4442017,47.140943 C32.5467097,47.140943 32.6492178,47.140943 32.7175565,47.166975 C32.7858953,47.193007 32.8200646,47.2450711 32.8200646,47.2971352 C32.7858953,47.4012633 32.7175565,47.4533273 32.6492178,47.4793594" id="Shape" fill="#FFFFFF" fill-rule="nonzero"></path>
            </g>
        </g>
    </g>
</svg>