<?xml version="1.0" encoding="UTF-8"?>
<svg width="51px" height="49px" viewBox="0 0 51 49" version="1.1" xmlns="http://www.w3.org/2000/svg" xmlns:xlink="http://www.w3.org/1999/xlink">
    <title>lotus</title>
    <defs>
        <filter id="filter-1">
            <feColorMatrix in="SourceGraphic" type="matrix" values="0 0 0 0 0.211765 0 0 0 0 0.207843 0 0 0 0 0.215686 0 0 0 1.000000 0"></feColorMatrix>
        </filter>
        <path d="M24.470796,0.095844 C37.975392,0.095844 48.922972,11.043424 48.922972,24.547824 C48.922972,37.7985598 38.3831098,48.58751 25.22961,48.9884501 L23.711993,48.9884501 C10.5586781,48.58751 0.018816,37.7985598 0.018816,24.547824" id="path-2"></path>
        <polygon id="path-4" points="0.0167213115 0.165560345 47.9529836 0.165560345 47.9529836 22.9960345 0.0167213115 22.9960345"></polygon>
    </defs>
    <g id="Page-1" stroke="none" stroke-width="1" fill="none" fill-rule="evenodd">
        <g id="lotus" transform="translate(-963.000000, -2425.000000)" filter="url(#filter-1)">
            <g transform="translate(963.500000, 2425.000000)">
                <g id="Lotus" transform="translate(6.500000, 4.000000)" fill="#000000" fill-rule="nonzero">
                    <path d="M20.8350486,16.1578318 C20.8118919,16.1578318 20.794573,16.1403645 20.7875676,16.0928692 C20.7716108,15.9835514 20.9728216,15.746271 21.024973,15.6475514 C21.1170162,15.4728785 21.2012757,15.2940841 21.2775568,15.111757 C21.5418162,14.4794019 21.7490595,13.8040654 21.9459892,13.1475701 C22.1427243,12.4916636 22.2106378,11.7707944 22.2012973,11.0874112 C22.1884541,10.143785 22.0183784,9.19309346 21.6568216,8.30873832 C21.3116108,7.46461682 20.7786162,6.67270093 20.0253405,6.08784112 C19.4302703,5.62603738 18.6655135,5.32516822 17.892973,5.32516822 C17.7762162,5.32516822 17.6592649,5.33203738 17.5425081,5.34636449 C16.6399784,5.45646729 15.8470054,5.99186916 15.2929946,6.65837383 C14.0452541,8.1597757 13.5858162,10.222486 13.7763243,12.0767664 C13.8767351,13.0533645 14.2094919,13.9838411 14.5669622,14.8903738 C14.6568649,15.1180374 14.7487135,15.3449159 14.8392,15.5721869 C14.8763676,15.6654112 15.106573,16.0918879 14.960627,16.1132804 C14.9565405,16.1138692 14.9522595,16.1142617 14.9477838,16.1142617 C14.7868541,16.1142617 14.4937946,15.7093738 14.4075892,15.612028 C14.3229405,15.5166449 14.2384865,15.4198879 14.1602595,15.3192056 L14.1458595,15.300757 C13.2497514,14.1443832 12.5005622,12.9173551 12.1374486,11.5172243 C11.6215784,9.52968224 11.9885838,7.68325234 13.1800865,5.97106542 C14.3817081,4.2445514 16.0941405,2.92586916 17.7647351,1.60345794 C17.8139676,1.56440187 17.8698162,1.52318692 17.9338378,1.52318692 C17.9365622,1.52318692 17.9392865,1.52318692 17.9420108,1.52338318 C17.9939676,1.5263271 18.0387243,1.5565514 18.0799784,1.58599065 C19.8805622,2.86895327 21.6465081,4.34896262 22.8337297,6.15790654 C24.2645838,8.33837383 24.3280216,10.6106916 23.2375135,12.9254019 C22.8115459,13.8295794 22.2606486,14.658 21.6640216,15.4200841 C21.4758486,15.6603084 21.2220973,15.8995514 20.9755459,16.0765794 C20.9259243,16.1122991 20.8726054,16.1578318 20.8350486,16.1578318" id="Fill-1"></path>
                    <path d="M27.0655784,20.8853832 C26.0143784,20.8853832 24.9760216,20.7089439 23.9392216,20.4002243 C24.4683243,20.4543925 24.9803027,20.4818692 25.474573,20.4818692 C29.3802811,20.4818692 32.1725189,18.7677196 33.5693189,14.9669159 C33.4257081,15.3576729 31.7436324,15.7743364 31.3546378,15.8838505 C30.4417946,16.1409533 29.4954811,16.279514 28.5499459,16.3737196 C26.9021189,16.5377944 25.2344432,16.5739065 23.6134703,16.8989159 C21.9926919,17.2239252 20.3837838,17.8741402 19.2921081,19.0534766 C19.7799568,17.8955327 20.7659676,17.0716262 21.7889514,16.2677383 C22.7605622,15.5038879 23.8901838,14.9366916 25.1136,14.6326822 C26.0564108,14.3983458 27.036973,14.2817664 28.008,14.1716636 C29.4688216,14.0060187 30.9454054,13.9520467 32.3976649,13.7412617 C33.803027,13.5371495 34.9139676,12.8031308 35.7293189,11.6899346 C35.7602595,11.6481308 35.7970378,11.6102523 35.8310919,11.5708037 C35.864173,11.5798318 35.8972541,11.5890561 35.9305297,11.5980841 C35.7896432,12.347215 35.6826162,13.1034112 35.5012541,13.843514 C35.1142054,15.4214579 34.416,16.8714393 33.3068108,18.1153458 C32.0847568,19.4860374 30.5634162,20.4068972 28.6737081,20.7438785 C28.1335135,20.840243 27.5977946,20.8853832 27.0655784,20.8853832" id="Fill-2"></path>
                    <path d="M8.80637838,20.890486 C7.92856216,20.890486 7.05833514,20.7768505 6.20367568,20.4956075 C3.78739459,19.7011402 2.20222703,18.0729533 1.14966486,15.9354673 C0.531827027,14.6811589 0.169686486,13.3532523 0.0595459459,11.9686262 C0.0542918919,11.9017009 0.0301621622,11.8363458 0.0202378378,11.7694206 C0.0110918919,11.7075981 0.00914594595,11.6447944 2.76535551e-15,11.5346916 C0.313297297,11.873243 0.576778378,12.1866729 0.871589189,12.4712523 C3.13491892,14.6552523 7.00890811,13.7954299 9.88832432,14.3889252 C12.6702486,14.9620093 15.3535135,16.5709626 16.5958054,19.0114766 L16.6133189,19.0399346 C15.9271784,18.5104206 15.1986162,18.009757 14.4276324,17.5956449 C13.3783784,17.0321776 12.2086703,16.7764486 11.0101622,16.6755701 C9.50633514,16.5489813 7.99608649,16.4824486 6.49654054,16.3221028 C4.98921081,16.1607757 3.55971892,15.7433271 2.25418378,14.7989159 C3.00804324,16.7703645 4.05496216,18.4203364 5.96335135,19.4528692 C7.43818378,20.2510654 9.01362162,20.4950187 10.6423784,20.4950187 C11.0767135,20.4950187 11.5145514,20.4777477 11.9556973,20.4488972 C11.3981838,20.5664579 10.8463135,20.7230748 10.2823784,20.7935327 C9.78908108,20.8549626 9.29636757,20.890486 8.80637838,20.890486" id="Fill-3"></path>
                    <path d="M23.7327568,14.415028 C23.6609514,14.415028 23.5967351,14.3404486 23.6455784,14.2692056 C24.1663135,13.5079065 24.7100108,12.7250187 25.2011676,11.915243 C25.9344,10.7058785 26.3911135,9.39543925 26.4660324,8.00963551 C26.5559351,6.34553271 26.0025081,4.85257009 24.8968216,3.54527103 C24.6008432,3.19514019 24.2622486,2.87601869 23.9473946,2.53923364 C23.8643027,2.45013084 23.7847135,2.40145794 23.6944216,2.40145794 C23.6268973,2.40145794 23.5533405,2.42873832 23.4677189,2.48683178 C22.8913297,2.87817757 22.3059892,3.25814019 21.7208432,3.64124299 C21.7015784,3.65380374 21.6811459,3.65929907 21.6612973,3.65929907 C21.5953297,3.65929907 21.5377297,3.59747664 21.5661405,3.52996262 C22.1228757,2.21402804 22.9514595,1.03861682 24.1079351,0.0261028037 C24.1279784,0.00863551402 24.1536649,-2.78904625e-15 24.1793514,-2.78904625e-15 C24.2065946,-2.78904625e-15 24.2336432,0.00961682243 24.2536865,0.029046729 C25.2591568,0.998383178 26.1371676,2.04171028 26.8098811,3.23478505 C27.5273514,4.50695327 27.8778162,5.85919626 27.8192432,7.2895514 C27.7639784,8.64336449 27.2911135,9.90159813 26.5703351,11.079757 C25.8112216,12.3209159 24.8532324,13.4160561 23.804173,14.3859813 C23.7823784,14.4063925 23.7570811,14.415028 23.7327568,14.415028" id="Fill-4"></path>
                    <path d="M12.3518919,14.6776262 C12.3308757,14.6776262 12.3090811,14.6701682 12.2904,14.6525047 C10.9772757,13.4140935 9.85388108,12.0954112 9.07958919,10.5370935 C7.71431351,7.78962617 7.99530811,5.15618692 9.72233514,2.66798131 C10.3364757,1.78342991 11.0899459,0.981897196 11.8078054,0.118542056 C11.8249297,0.0981308411 11.8506162,0.0873364486 11.8766919,0.0873364486 C11.8980973,0.0873364486 11.9196973,0.0945981308 11.936627,0.109514019 C13.0325838,1.06550467 13.7506378,2.16260748 14.3706162,3.37059813 C14.4976865,3.61788785 14.4879568,3.75958879 14.3706162,3.75958879 C14.2992,3.75958879 14.1875027,3.70679439 14.0427243,3.59315888 C13.8506595,3.44282243 13.6634595,3.30249533 13.4723676,3.16707477 C13.1896216,2.96669159 12.8891676,2.7837757 12.5776216,2.62480374 C12.5402595,2.60576636 12.4846054,2.59654206 12.4270054,2.59654206 C12.3411892,2.59654206 12.2505081,2.61675701 12.2069189,2.65502804 C10.5219243,4.13091589 9.48492973,5.89648598 9.56957838,8.10403738 C9.63243243,9.73928972 10.2487135,11.243243 11.1317838,12.6514206 C11.5328432,13.2910374 11.9732108,13.9098505 12.4252541,14.553 C12.4678703,14.6136449 12.4129946,14.6776262 12.3518919,14.6776262" id="Fill-5"></path>
                    <path d="M26.6579027,13.6839533 C26.7976216,13.5840561 26.9375351,13.4845514 27.0766703,13.3842617 C28.7844324,12.1550748 30.2968216,10.7712336 31.1981838,8.91361682 C31.7479135,7.78138318 31.9975784,6.59419626 31.9736432,5.36304673 C31.9722811,5.2961215 31.9596324,5.22939252 31.9524324,5.16364486 C31.1123676,5.22134579 29.9950054,5.67843925 28.2775135,6.67191589 C29.5585297,4.94991589 31.4089297,4.12326168 33.3249081,3.29876636 C33.4829189,4.69614953 33.4735784,6.04348598 33.1668973,7.3878785 C32.4646054,10.4672243 30.3573405,12.3998131 27.2681514,13.5310654 C27.0780324,13.6007383 26.885773,13.6645234 26.6579027,13.6839533" id="Fill-6"></path>
                    <path d="M9.73148108,13.5856262 C4.24527568,12.217486 2.10142703,8.46535514 2.5092973,3.45185047 C4.44025946,4.2041215 6.33327568,4.92459813 7.60164324,6.53963551 C6.51113514,5.80306542 5.2704,5.44665421 3.92458378,5.20623364 C3.97926486,9.09496262 6.42142703,11.5478411 9.73148108,13.5856262" id="Fill-7"></path>
                </g>
                <g id="Combined-Shape-Clipped" transform="translate(0.500000, 0.000000)">
                    <mask id="mask-3" fill="white">
                        <use xlink:href="#path-2"></use>
                    </mask>
                    <g id="path-1"></g>
                    <path d="M32.232984,45.903592 C33.8808918,45.903592 34.7950103,46.1549704 35.6470545,46.452492 C32.2158277,48.2324934 28.3739618,49.183848 24.470796,49.183848 C20.5545688,49.183848 16.7001498,48.2261156 13.2602531,46.4347538 C14.0978047,46.1449427 15.0078004,45.903592 16.622172,45.903592 C18.446195,45.903592 19.371024,46.2115723 20.3079193,46.5493859 L20.42516,46.591748 C21.408296,46.947292 22.424752,47.314792 24.427676,47.314792 C26.430404,47.314792 27.447252,46.947292 28.430388,46.591552 C29.409016,46.237772 30.333352,45.903592 32.232984,45.903592 Z M34.123404,42.73192 C36.4112491,42.73192 37.5658635,43.0798353 38.7404604,43.4598591 L38.871112,43.5022 C39.1525372,43.5935589 39.436188,43.6856211 39.7366576,43.7731676 C38.6696801,44.639664 37.5332131,45.4095579 36.3426414,46.0773139 C36.3071062,46.0644917 36.2716328,46.0516745 36.236088,46.038832 C35.252756,45.683092 34.236104,45.315592 32.232984,45.315592 C30.23006,45.315592 29.213604,45.683092 28.230468,46.038636 C27.25184,46.392416 26.327504,46.726792 24.427676,46.726792 C22.527848,46.726792 21.603512,46.392416 20.62508,46.038832 C19.641748,45.683092 18.625096,45.315592 16.622172,45.315592 C14.619444,45.315592 13.602792,45.683092 12.619656,46.038832 C12.6016581,46.0453361 12.5836785,46.0518337 12.5657108,46.0583226 C11.3817829,45.3920271 10.2516864,44.6244644 9.19044,43.761116 C9.18768516,43.7588757 9.18493087,43.7566347 9.18217711,43.7543932 C9.45926756,43.6726079 9.7227103,43.5871001 9.98424,43.5022 C11.205516,43.106084 12.358976,42.73192 14.730968,42.73192 C17.018624,42.73192 18.1728673,43.0798353 19.3474379,43.4598591 L19.478088,43.5022 C20.694072,43.896944 21.951608,44.30482 24.42748,44.30482 C26.903352,44.30482 28.160888,43.896944 29.376676,43.5022 C30.597952,43.106084 31.751412,42.73192 34.123404,42.73192 Z M33.487972,39.339552 C35.701596,39.339552 36.778224,39.70078 37.917964,40.083372 C39.055744,40.46518 40.232528,40.86012 42.549836,40.86012 C42.6170317,40.86012 42.6832683,40.8597878 42.7485726,40.8591335 C42.0068609,41.7125095 41.2043217,42.5160991 40.3456049,43.2617198 C39.8955344,43.1458026 39.488277,43.0137268 39.073188,42.879116 C37.857204,42.484372 36.599668,42.076496 34.123404,42.076496 C31.647728,42.076496 30.390388,42.484372 29.174404,42.879116 C27.953128,43.275232 26.799668,43.649396 24.42748,43.649396 C22.055292,43.649396 20.901636,43.275232 19.68036,42.879116 C18.464376,42.484372 17.207036,42.076496 14.730968,42.076496 C12.255292,42.076496 10.997952,42.484372 9.781968,42.879116 C9.38747647,43.0070677 9.00006081,43.132729 8.57636032,43.2442293 C7.72527528,42.5037552 6.929726,41.7063467 6.1941517,40.8599273 L6.306496,40.86012 C8.623216,40.86012 9.799608,40.46518 10.937388,40.083372 C12.076932,39.700976 13.153364,39.339552 15.366792,39.339552 C17.58022,39.339552 18.656652,39.700976 19.796392,40.083372 C20.934172,40.46518 22.110564,40.86012 24.42748,40.86012 C26.744396,40.86012 27.920984,40.46518 29.058764,40.083372 C30.198308,39.70078 31.274544,39.339552 33.487972,39.339552 Z M32.232984,35.870744 C34.057007,35.870744 34.9820167,36.1787243 35.9189265,36.5165379 L36.036168,36.5589 C37.0195,36.914248 38.036152,37.281944 40.039272,37.281944 C42.042392,37.281944 43.059044,36.914248 44.042376,36.5589 C44.647104,36.340166 45.2311758,36.1289911 46.0375268,35.999555 C45.2706367,37.4918818 44.3499086,38.9049253 43.2913555,40.2119549 C43.0589097,40.2215671 42.8123692,40.226648 42.549836,40.226648 C40.336016,40.226648 39.259388,39.865224 38.119452,39.482828 C36.981672,39.100824 35.805084,38.70608 33.487972,38.70608 C31.171252,38.70608 29.994664,39.100824 28.856884,39.482828 C27.71734,39.865224 26.641104,40.226648 24.42748,40.226648 C22.214052,40.226648 21.13762,39.86542 19.998076,39.482828 C18.860296,39.100824 17.683708,38.70608 15.366792,38.70608 C13.049876,38.70608 11.873484,39.100824 10.7359,39.482828 C9.59616,39.86542 8.519728,40.226648 6.306496,40.226648 C6.07692204,40.226648 5.85957945,40.2227613 5.65312884,40.2153674 C4.59714617,38.9119216 3.67810615,37.5029113 2.91190797,36.0150102 C3.62006142,36.1365114 4.15674201,36.3215552 4.69750025,36.5165379 L4.81474,36.5589 C5.797876,36.914248 6.814332,37.281944 8.817256,37.281944 C10.819984,37.281944 11.83644,36.914248 12.819576,36.5589 C13.798204,36.204924 14.72254,35.870744 16.622172,35.870744 C18.446195,35.870744 19.371024,36.1787243 20.307746,36.5165379 L20.424964,36.5589 C21.4081,36.914248 22.424752,37.281944 24.427676,37.281944 C26.430404,37.281944 27.447252,36.914248 28.430388,36.5589 C29.409016,36.204924 30.333352,35.870744 32.232984,35.870744 Z M43.742888,32.681432 C44.641548,32.681432 45.026296,32.819024 45.558632,33.00934 C45.984148,33.161436 46.477284,33.336856 47.171124,33.444264 C46.9259899,34.0956696 46.6529625,34.7360394 46.3531676,35.3634631 C45.2664468,35.4910414 44.5459251,35.7515744 43.842456,36.005788 C42.863632,36.359764 41.939296,36.693944 40.039272,36.693944 C38.139248,36.693944 37.214912,36.359764 36.236088,36.005788 C35.252756,35.65044 34.236104,35.282744 32.232984,35.282744 C30.23006,35.282744 29.213604,35.65044 28.230468,36.005788 C27.25184,36.359764 26.327504,36.693944 24.427676,36.693944 C22.527848,36.693944 21.603512,36.359764 20.62508,36.005788 C19.641944,35.65044 18.625096,35.282744 16.622172,35.282744 C14.619444,35.282744 13.602792,35.65044 12.619656,36.005788 C11.641224,36.359764 10.716888,36.693944 8.817256,36.693944 C6.917428,36.693944 5.993092,36.359764 5.01466,36.005788 C4.33081927,35.7586183 3.6308577,35.5054745 2.59401218,35.3742527 C2.2900543,34.7394875 2.01370945,34.0912565 1.76596,33.43172 C2.418248,33.323528 2.889628,33.155556 3.298876,33.00934 C3.831408,32.819024 4.216156,32.681432 5.115404,32.681432 C6.014848,32.681432 6.399596,32.819024 6.932128,33.00934 C7.599312,33.247676 8.429764,33.544616 9.94504,33.544616 C11.460316,33.544616 12.290572,33.247676 12.957756,33.00934 C13.489896,32.819024 13.874644,32.681432 14.773892,32.681432 C15.672944,32.681432 16.057496,32.819024 16.589832,33.00934 C17.257016,33.247676 18.087076,33.544616 19.602352,33.544616 C21.117628,33.544616 21.947884,33.247676 22.614872,33.00934 C23.147208,32.819024 23.531956,32.681432 24.431008,32.681432 C25.33006,32.681432 25.714612,32.819024 26.247144,33.00934 C26.914132,33.247676 27.744584,33.544616 29.259664,33.544616 C30.774744,33.544616 31.604804,33.247676 32.271792,33.00934 C32.804324,32.819024 33.188876,32.681432 34.087732,32.681432 C34.986588,32.681432 35.37114,32.819024 35.90328,33.00934 C36.570268,33.247676 37.400328,33.544616 38.915604,33.544616 C40.430488,33.544616 41.260352,33.247676 41.927536,33.00934 C42.459676,32.819024 42.844228,32.681432 43.742888,32.681432 Z" id="Combined-Shape" fill="#000000" fill-rule="nonzero" mask="url(#mask-3)"></path>
                </g>
                <g id="Text" transform="translate(2.500000, 26.000000)" fill="#000000" fill-rule="nonzero">
                    <polyline id="Fill-11" points="6.92087081e-16 0.044 0.634285714 0.044 0.634285714 5.2984 2.73467532 5.2984 2.73467532 5.844 6.92087081e-16 5.844 6.92087081e-16 0.044"></polyline>
                    <path d="M7.75772727,2.975 C7.75772727,1.6106 7.01181818,0.5632 5.67448052,0.5632 C4.41448052,0.5632 3.59142857,1.5402 3.59142857,2.975 C3.59142857,4.4096 4.41448052,5.3688 5.67448052,5.3688 C6.93467532,5.3688 7.75772727,4.4096 7.75772727,2.975 Z M2.92266234,2.975 C2.92266234,1.2146 4.08857143,-5.77315973e-15 5.67448052,-5.77315973e-15 C7.27772727,-5.77315973e-15 8.4262987,1.241 8.4262987,2.975 C8.4262987,4.7878 7.21753247,5.9322 5.67448052,5.9322 C4.09714286,5.9322 2.92266234,4.7702 2.92266234,2.975 L2.92266234,2.975 Z" id="Fill-12"></path>
                    <polyline id="Fill-13" points="10.2944805 0.5898 8.67428571 0.5898 8.67428571 0.044 12.7118182 0.044 12.5234416 0.5898 10.9287662 0.5898 10.9287662 5.844 10.2944805 5.844 10.2944805 0.5898"></polyline>
                    <path d="M13.3628571,4.7 C13.2771429,4.427 13.2342857,4.1102 13.2342857,3.767 L13.2342857,0.044 L13.8685714,0.044 L13.8685714,3.7054 C13.8685714,4.0134 13.9028571,4.2862 13.98,4.5152 C14.1771429,5.0606 14.6316234,5.3776 15.3344805,5.3776 C16.0461039,5.3776 16.4918182,5.0606 16.688961,4.5152 C16.7746753,4.2862 16.8003896,4.0134 16.8003896,3.679 L16.8003896,0.044 L17.4348701,0.044 L17.4348701,3.767 C17.4348701,4.1278 17.392013,4.4446 17.2891558,4.7176 C17.0146753,5.5098 16.3375325,5.9322 15.3344805,5.9322 C14.3059091,5.9322 13.6371429,5.501 13.3628571,4.7" id="Fill-14"></path>
                    <path d="M18.6340909,4.9816 C18.9083766,5.1664 19.3371429,5.3688 19.86,5.3688 C20.4685714,5.3688 21.0001948,5.1136 21.0001948,4.427 C21.0001948,3.0364 18.5140909,3.2036 18.5140909,1.4698 C18.5140909,0.6514 19.1228571,-5.68434188e-15 20.1771429,-5.68434188e-15 C20.6914286,-5.68434188e-15 21.1459091,0.132 21.4030519,0.264 L21.4030519,0.8714 C21.0516234,0.6688 20.6230519,0.5544 20.1942857,0.5544 C19.6885714,0.5544 19.1740909,0.7834 19.1740909,1.4082 C19.1740909,2.7196 21.6603896,2.5788 21.6603896,4.3832 C21.6603896,5.3512 20.9316234,5.9322 19.8514286,5.9322 C19.2085714,5.9322 18.7026623,5.7296 18.3683766,5.4922 L18.6340909,4.9816" id="Fill-15"></path>
                    <path d="M25.4228571,3.1598 C25.7828571,3.1598 26.0485714,3.0892 26.2457143,2.9838 C26.6230519,2.7812 26.82,2.4028 26.82,1.8748 C26.82,1.3906 26.6316234,0.9946 26.28,0.7834 C26.0828571,0.66 25.8171429,0.5898 25.4312338,0.5898 L25.0026623,0.5898 L25.0026623,3.1598 L25.4228571,3.1598 Z M24.3681818,0.044 L25.4312338,0.044 C25.98,0.044 26.3571429,0.132 26.6571429,0.3082 C27.1716234,0.6074 27.4716234,1.1442 27.4716234,1.8748 C27.4716234,2.5524 27.1887662,3.1684 26.5285714,3.4852 C26.2457143,3.6174 25.8771429,3.7054 25.3714286,3.7054 L25.0026623,3.7054 L25.0026623,5.844 L24.3681818,5.844 L24.3681818,0.044 L24.3681818,0.044 Z" id="Fill-16"></path>
                    <path d="M33.0177273,2.975 C33.0177273,1.6106 32.2718182,0.5632 30.9342857,0.5632 C29.6742857,0.5632 28.8512338,1.5402 28.8512338,2.975 C28.8512338,4.4096 29.6742857,5.3688 30.9342857,5.3688 C32.1946753,5.3688 33.0177273,4.4096 33.0177273,2.975 Z M28.1824675,2.975 C28.1824675,1.2146 29.3485714,-5.77315973e-15 30.9342857,-5.77315973e-15 C32.5375325,-5.77315973e-15 33.6861039,1.241 33.6861039,2.975 C33.6861039,4.7878 32.4775325,5.9322 30.9342857,5.9322 C29.3571429,5.9322 28.1824675,4.7702 28.1824675,2.975 L28.1824675,2.975 Z" id="Fill-17"></path>
                    <path d="M34.6712338,0.044 L35.28,0.044 L37.9032468,3.5646 C38.2634416,4.0574 38.528961,4.4446 38.7177273,4.7438 L38.7346753,4.7438 C38.7262987,4.427 38.7177273,4.1718 38.7177273,3.723 L38.7177273,0.044 L39.3518182,0.044 L39.3518182,5.844 L38.8205844,5.844 L36.0944805,2.1828 C35.7514286,1.7252 35.4942857,1.3554 35.2971429,1.065 L35.28,1.065 C35.2971429,1.3554 35.3057143,1.6018 35.3057143,2.0596 L35.3057143,5.844 L34.6712338,5.844 L34.6712338,0.044" id="Fill-18"></path>
                    <path d="M41.9314286,5.2984 C43.6887662,5.2984 44.2887662,4.1894 44.2887662,2.8868 C44.2887662,1.558 43.5516234,0.5898 41.9142857,0.5898 L41.2455195,0.5898 L41.2455195,5.2984 L41.9314286,5.2984 Z M40.611039,0.044 L41.9655195,0.044 C43.9887662,0.044 44.9575325,1.2586 44.9575325,2.9132 C44.9575325,4.5766 43.9801948,5.844 41.94,5.844 L40.611039,5.844 L40.611039,0.044 L40.611039,0.044 Z" id="Fill-19"></path>
                </g>
                <g id="Fill-20-Clipped" transform="translate(0.500000, 0.000000)">
                    <mask id="mask-5" fill="white">
                        <use xlink:href="#path-4"></use>
                    </mask>
                    <g id="path-3"></g>
                    <path d="M23.9848525,0.388818966 C10.8908852,0.388818966 0.238229508,11.1256552 0.238229508,24.3228966 C0.238229508,37.5203362 10.8908852,48.2571724 23.9848525,48.2571724 C37.0788197,48.2571724 47.7316721,37.5203362 47.7316721,24.3228966 C47.7316721,11.1256552 37.0788197,0.388818966 23.9848525,0.388818966 Z M23.9848525,48.4802328 C10.7687213,48.4802328 0.0167213115,37.6434655 0.0167213115,24.3228966 C0.0167213115,11.0025259 10.7687213,0.165560345 23.9848525,0.165560345 C37.2007869,0.165560345 47.9529836,11.0025259 47.9529836,24.3228966 C47.9529836,37.6434655 37.2007869,48.4802328 23.9848525,48.4802328 L23.9848525,48.4802328 Z" id="Fill-20" fill="#000000" fill-rule="nonzero" mask="url(#mask-5)"></path>
                </g>
            </g>
        </g>
    </g>
</svg>