<svg width="583" height="792" viewBox="0 0 583 792" fill="none" xmlns="http://www.w3.org/2000/svg">
<path d="M496.871 0.394446C495.09 0.857766 491.167 2.80039 489.022 4.27969C486.351 6.1309 479.887 12.1748 478.831 13.7778C478.469 14.3647 477.413 15.6591 476.524 16.7083C475.633 17.7565 474.644 19.0208 474.346 19.5454C472.402 22.8748 470.686 25.5581 469.433 27.1922C468.643 28.2415 467.785 29.6283 467.486 30.2765C467.19 30.9549 466.036 32.8051 464.883 34.4391C463.761 36.0431 462.409 38.1405 461.914 39.0651C460.595 41.5011 458.881 44.1221 456.835 46.7441C455.845 48.0084 454.56 50.1048 453.934 51.369C453.306 52.6333 452.647 53.9599 452.449 54.2986C452.251 54.6383 451.162 56.5809 450.042 58.6471C448.921 60.6822 447.503 63.1183 446.876 64.0439C446.248 64.9684 445.49 66.1101 445.194 66.6347C443.512 69.3783 442.655 70.735 441.533 72.4003C440.873 73.3872 439.622 75.5157 438.797 77.0563C435.927 82.5455 433.849 86.0007 432.463 87.6337C431.903 88.3131 430.485 90.4407 429.331 92.3843C426.462 97.1941 424.813 99.6302 423.033 101.634C421.119 103.793 419.438 105.92 418.019 107.987C417.394 108.882 416.766 109.684 416.601 109.776C416.437 109.869 415.744 110.763 415.051 111.719C414.358 112.706 412.908 114.555 411.786 115.821C407.664 120.539 402.652 127.384 400.871 130.683C400.244 131.855 398.397 134.508 396.781 136.574C395.166 138.641 393.483 140.799 393.088 141.353C392.231 142.463 385.668 148.077 383.129 149.803C380.49 151.654 378.84 152.208 375.213 152.548C372.013 152.856 367.859 152.918 367.463 152.702C367.133 152.517 357.569 154.12 355.888 154.645C353.579 155.384 349.622 156.494 348.467 156.773C340.75 158.591 331.22 160.073 329.076 159.795C328.318 159.702 326.504 159.547 325.053 159.424C321.886 159.208 319.974 158.684 316.478 157.112C310.642 154.461 305.595 151.098 300.319 146.319C293.821 140.428 291.942 138.672 290.259 136.789C289.271 135.68 288.348 134.754 288.216 134.693C288.084 134.631 287.424 133.86 286.732 132.998C286.038 132.103 284.785 130.56 283.896 129.542C283.037 128.524 281.851 126.922 281.29 125.997C280.73 125.071 280.169 124.238 280.036 124.146C279.937 124.053 279.179 123.159 278.388 122.142C277.63 121.124 276.409 119.767 275.715 119.151C274.991 118.503 274.43 117.854 274.43 117.701C274.43 117.547 273.573 116.621 272.485 115.634C270.077 113.383 266.647 109.53 265.988 108.389C265.724 107.895 264.867 106.631 264.042 105.552C263.251 104.472 262.294 102.93 261.932 102.16C261.206 100.617 257.313 94.1711 256.953 93.9249C256.82 93.8325 256.392 93.0928 255.995 92.2607C255.599 91.3974 254.94 90.2869 254.545 89.7924C254.115 89.2689 253.06 87.6649 252.202 86.2469C251.312 84.7977 250.323 83.3475 249.993 83.0088C249.663 82.6702 249.268 82.1144 249.169 81.7757C249.036 81.4049 248.509 80.5426 248.014 79.8331C247.487 79.1225 247.058 78.4764 247.058 78.3528C247.058 78.2593 246.465 77.0262 245.771 75.6383C243.793 71.752 241.782 67.4357 241.782 67.0046C241.75 65.679 238.847 58.616 237.528 56.6422C237 55.8714 236.11 54.2985 235.549 53.1891C234.989 52.0786 234.295 50.968 234.031 50.753C233.734 50.5058 233.273 49.9199 232.976 49.3963C232.712 48.8717 231.36 47.0527 230.041 45.3563C227.403 42.0258 225.82 39.8058 222.984 35.3336C221.994 33.7608 220.643 31.9106 220.015 31.2011C219.356 30.5227 218.432 29.4434 217.938 28.7962C217.444 28.1791 216.883 27.5008 216.651 27.2546C216.388 27.0385 215.696 26.2365 215.068 25.4657C213.749 23.8929 210.154 20.6549 208.078 19.1444C207.285 18.5886 205.109 17.3243 203.196 16.3374C201.317 15.3817 198.909 13.9938 197.887 13.3155C195.611 11.805 191.819 9.83123 189.345 8.93679C188.357 8.56697 186.773 7.98105 185.85 7.64136C183.839 6.87054 177.671 6.19219 175.396 6.46956C173.516 6.7168 171.57 7.48762 168.7 9.183C165.963 10.7558 163.787 13.5627 160.39 19.668C158.279 23.5231 157.29 25.8054 155.542 30.9237C154.356 34.4391 152.706 39.2188 151.915 41.5323C151.123 43.8448 150.298 46.6205 150.1 47.6999C149.936 48.7792 149.54 50.352 149.278 51.1841C149.013 52.0173 148.781 53.1579 148.781 53.7126C148.781 54.2684 148.552 55.3779 148.254 56.1799C147.956 56.9819 147.528 59.1717 147.264 61.052C147.035 62.9333 146.605 65.2458 146.309 66.1714C146.045 67.097 145.814 68.2065 145.814 68.6376C145.814 69.0708 145.22 71.4134 144.528 73.8806C140.24 88.9603 140.01 89.8548 139.713 92.323C139.614 93.3712 139.316 94.7892 139.054 95.4354C138.822 96.1148 138.427 98.2735 138.229 100.247C138.031 102.221 137.634 104.411 137.372 105.088C137.14 105.736 136.844 107.216 136.712 108.358C136.613 109.499 136.216 111.471 135.887 112.737C135.557 114.001 135.062 117.116 134.798 119.675C134.535 122.203 134.107 124.979 133.809 125.843C133.546 126.675 133.151 128.896 132.952 130.775C132.753 132.627 132.358 134.847 132.094 135.71C131.832 136.543 131.105 142.247 130.478 148.355C129.853 154.461 129.126 160.226 128.863 161.152C128.401 162.785 127.873 165.098 126.356 171.791C125.96 173.486 125.367 175.83 125.037 177.034C124.674 178.206 123.817 181.351 123.092 183.971C121.013 191.558 120.519 193.347 117.913 201.548C117.32 203.491 116.66 205.929 116.495 206.945C116.331 207.962 116.033 209.197 115.803 209.721C115.606 210.215 114.978 214.994 114.452 220.359C112.967 235.008 113.198 237.568 117.815 254.744C118.342 256.779 119.728 260.665 120.914 263.379C122.07 266.093 123.355 269.208 123.751 270.318C124.147 271.428 124.74 272.846 125.071 273.464C125.632 274.51 125.632 274.666 125.169 275.714C124.377 277.502 123.916 282.004 124.377 283.454C125.135 285.798 125.334 291.471 124.839 296.221C124.609 298.688 124.312 303.405 124.246 306.706C124.081 313.582 123.092 322.958 122.234 325.67C119.992 332.98 116.628 341.09 114.682 343.988C114.188 344.698 113.363 346.301 112.869 347.536C112.34 348.769 111.483 350.402 110.955 351.143C109.9 352.592 108.25 355.552 106.701 358.821C106.173 359.931 104.822 362.492 103.668 364.495C102.512 366.5 101.227 368.998 100.797 370.047C100.368 371.095 98.6875 374.826 97.0378 378.371C95.3881 381.888 93.8071 385.588 93.5089 386.544C93.2129 387.501 92.6197 388.888 92.2239 389.659C91.2339 391.51 88.0675 400.452 87.145 403.998C86.7482 405.51 86.2215 407.453 85.9576 408.315C85.727 409.148 85.4288 410.473 85.2979 411.245C85.1993 412.016 84.8035 413.865 84.4409 415.409C84.1106 416.918 83.2868 423.518 82.6603 430.057C82.0329 436.594 81.4055 442.76 81.3068 443.779C80.911 447.265 81.1437 459.599 81.6693 463.208C81.7358 463.7 81.8677 465.798 82.0007 467.833C82.0994 469.868 82.2303 472.089 82.329 472.766C82.4276 473.445 82.5606 475.111 82.6603 476.468C82.759 477.823 83.0551 480.167 83.319 481.71C83.5839 483.22 83.8799 485.317 83.9786 486.335C84.1106 487.352 84.308 489.019 84.4731 490.037C85.0341 493.551 84.6061 508.231 83.6826 517.635C83.187 522.478 82.5939 527.102 82.329 527.966C82.0994 528.799 81.769 530.187 81.6693 531.05C81.4397 532.529 80.9452 534.688 79.494 540.456C77.1857 549.553 75.4373 554.887 72.3053 562.104C71.3817 564.263 70.6234 566.144 70.6234 566.267C70.6234 566.39 70.1268 567.285 69.5014 568.239C68.9072 569.165 68.0834 570.708 67.7209 571.663C67.324 572.62 65.8406 575.179 64.4236 577.369C61.2894 582.147 58.7495 586.589 57.826 588.871C57.4634 589.827 56.2428 591.955 55.1219 593.65C52.8146 597.103 51.7592 598.985 51.1649 600.712C50.9343 601.359 50.2747 602.686 49.6483 603.641C49.0551 604.597 48.1638 606.294 47.7015 607.466C47.2413 608.606 46.3178 610.611 45.5916 611.937C44.8997 613.231 44.0749 615.082 43.7446 616.008C43.4153 616.933 42.821 618.351 42.393 619.122C41.9972 619.893 41.2389 621.681 40.7434 623.131C40.2811 624.549 39.5892 626.216 39.2931 626.8C38.9628 627.387 37.6435 630.656 36.3242 634.048C35.0048 637.44 33.5203 641.264 33.0269 642.528C32.4981 643.793 31.8385 645.798 31.5424 647C31.2453 648.171 30.5202 650.545 29.927 652.243C29.3338 653.937 28.4103 656.498 27.9158 657.947C27.4203 659.396 26.6952 661.123 26.2662 661.802C25.1442 663.651 22.0443 672.132 21.0221 676.141C20.5276 678.084 19.8358 680.797 19.4732 682.124C19.1096 683.634 18.3845 689.525 17.6584 697.081C16.472 709.6 16.472 709.6 15.3833 711.82C14.7559 713.055 13.8334 714.596 13.3056 715.214C12.7769 715.86 11.2945 718.265 9.97515 720.548C8.68907 722.83 7.17237 725.481 6.6114 726.407C4.10469 730.693 2.32413 734.424 2.02702 735.966C1.30088 739.945 0.707705 748.239 1.0713 749.782C1.56474 752.063 4.07249 755.886 6.57713 758.262C10.7335 762.208 18.7149 766.002 27.7185 768.346C30.6521 769.117 33.3894 769.455 44.7346 770.505C56.6396 771.584 58.6508 771.86 61.5533 772.663C63.3671 773.188 66.7973 774.175 69.1389 774.822C74.9428 776.487 82.4277 779.046 83.5174 779.787C84.0119 780.125 85.0663 780.651 85.8589 780.99C87.6395 781.73 94.1031 785.614 96.774 787.558C97.8959 788.36 99.8739 789.654 101.129 790.456C102.414 791.257 104.096 792.431 104.921 793.109C105.745 793.757 107.064 794.62 107.888 795.02C108.712 795.421 109.9 796.254 110.527 796.871C111.152 797.517 112.933 798.814 114.484 799.738C116.033 800.663 118.244 802.176 119.432 803.038C122.267 805.134 126.652 807.572 129.357 808.528C130.544 808.959 132.16 809.607 132.985 809.977C134.601 810.779 141.196 813.369 146.309 815.281C152.674 817.624 155.774 818.611 159.599 819.505C164.479 820.616 172.526 822.867 180.803 825.426C182.386 825.92 183.97 826.32 184.365 826.32C184.728 826.32 186.41 826.722 188.093 827.246C194.325 829.097 212.793 833.167 219.027 834.061C223.775 834.74 228.327 835.696 232.482 836.836C241.683 839.426 243.99 839.797 255.335 840.815C269.089 842.017 268.395 841.924 270.672 842.448C271.726 842.725 273.275 843.005 274.1 843.096C276.772 843.435 287.028 845.379 291.578 846.397C292.932 846.704 297.482 847.232 301.638 847.564C305.826 847.938 310.047 848.427 311.037 848.707C312.026 848.988 317.763 849.663 323.733 850.224C332.705 851.024 335.672 851.179 340.552 851.086C343.817 851.024 353.843 850.93 362.812 850.868C371.784 850.806 380.622 850.587 382.435 850.411C387.58 849.912 390.383 849.756 399.256 849.6C403.806 849.507 408.851 849.33 410.468 849.143C412.118 848.988 414.952 848.707 416.833 848.551C418.679 848.375 420.328 848.188 420.459 848.125C420.592 848.032 421.58 847.876 422.67 847.782C430.749 846.95 435.432 845.871 439.622 843.899C441.039 843.22 442.358 842.664 442.522 842.664C442.722 842.664 443.808 842.079 444.997 841.339C446.183 840.63 448.69 839.487 450.569 838.841C455.714 837.114 457.199 836.375 459.54 834.524L461.683 832.858L466.893 832.489C473.027 832.088 474.281 831.871 477.085 830.638C478.238 830.114 479.392 829.712 479.624 829.712C480.745 829.682 490.408 825.951 491.595 825.087C491.792 824.963 492.683 824.47 493.573 823.977C494.497 823.515 495.749 822.867 496.376 822.528C497.004 822.188 497.96 821.572 498.488 821.171C499.048 820.74 500.665 819.875 502.115 819.259C503.599 818.611 506.469 817.008 508.512 815.65C510.558 814.325 513.394 812.567 514.813 811.766C517.649 810.162 521.968 806.183 523.09 804.117C523.485 803.378 524.112 800.909 524.607 798.166C525.464 793.572 525.464 793.418 524.936 790.241C524.673 788.453 524.343 786.231 524.243 785.307C523.913 782.53 523.09 778.09 522.594 776.333C522.332 775.408 521.803 773.219 521.44 771.429C519.726 763.134 517.747 756.443 515.504 751.694C514.45 749.411 513.459 747.099 513.328 746.605C513.195 746.081 512.734 744.94 512.306 744.014C511.876 743.091 511.152 740.901 510.69 739.143C509.964 736.274 509.47 735.072 507.754 732.265C506.633 730.416 504.952 726.93 504.49 725.481C504.192 724.587 503.006 721.966 501.818 719.654C500.63 717.341 499.674 715.336 499.674 715.214C499.674 715.088 498.915 713.424 497.992 711.512C496.113 707.595 492.914 698.837 492.419 696.032C492.222 695.015 491.693 692.702 491.231 690.912C490.804 689.123 490.44 687.242 490.44 686.718C490.44 686.226 490.209 685.114 489.946 684.314C489.682 683.48 489.386 681.845 489.287 680.643C489.089 678.702 487.934 672.688 487.143 669.665C486.385 666.643 486.385 666.797 487.242 666.952C488.032 667.106 489.352 666.952 498.355 665.686C503.895 664.916 505.215 664.607 511.051 662.666C515.208 661.277 520.385 658.78 522.76 657.021C524.409 655.788 531.565 648.942 533.906 646.351C538.16 641.695 540.205 637.871 542.646 630.192C543.668 627.017 544.723 617.487 544.394 614.498C543.998 611.073 542.678 605.584 540.798 599.818C539.81 596.765 538.887 593.804 538.755 593.249C538.195 590.69 533.675 583.444 529.982 579.157C529.256 578.293 528.268 576.906 527.805 576.073C526.222 573.205 521.176 566.544 516.824 561.578C511.481 555.443 510.755 554.641 509.436 553.006C508.842 552.297 505.908 549.46 502.907 546.683C497.531 541.72 497.432 541.566 494.564 536.97C491.792 532.437 491.1 530.679 491.265 528.706C491.429 527.225 491.989 525.159 492.683 523.803C493.047 523.031 493.639 521.798 494.035 521.026C494.991 519.023 497.629 514.551 498.521 513.472C498.915 512.948 500.269 510.882 501.554 508.846C502.808 506.811 504.49 504.129 505.313 502.927C506.864 500.52 510.755 496.049 512.272 494.847L513.229 494.136L515.801 495.123C517.219 495.649 519.264 496.172 520.318 496.265C521.408 496.357 523.221 496.697 524.409 497.005C529.058 498.269 534.467 497.93 543.998 495.741C548.218 494.754 549.11 494.446 554.519 492.07C556.1 491.393 557.486 490.807 557.585 490.807C558.113 490.807 563.258 488.217 564.676 487.26C565.533 486.643 566.852 485.502 567.578 484.67C569.159 482.913 573.217 476.683 573.975 474.863C574.272 474.155 575.031 472.643 575.69 471.502C576.318 470.33 576.843 469.251 576.843 469.097C576.843 468.758 578.262 465.118 580.373 460.062C581.626 457.009 581.858 456.022 582.319 452.044C583.078 445.321 582.912 443.81 580.143 433.14C579.746 431.691 579.186 429.347 578.822 427.868C578.163 425 576.582 421.113 575.327 419.387L574.536 418.307L575.954 415.778C577.668 412.786 578.822 410.135 579.845 406.774C580.901 403.29 580.934 396.473 579.879 391.818C578.822 387.162 577.965 384.17 576.976 381.919C574.174 375.443 573.118 373.685 569.787 370.077C566.522 366.561 559.037 359.839 556.727 358.359C555.54 357.619 554.155 356.632 553.595 356.169C553.067 355.737 551.715 354.781 550.626 354.103C549.538 353.394 548.384 352.622 548.087 352.345C547.756 352.068 546.637 351.451 545.581 350.989C543.898 350.217 543.471 349.848 541.92 347.627C540.963 346.239 539.677 344.451 539.084 343.618C538.456 342.816 537.732 341.428 537.469 340.504C537.006 339.023 537.006 338.714 537.436 337.543C537.698 336.803 538.095 334.983 538.259 333.441C538.456 331.93 538.755 330.451 538.919 330.141C539.084 329.864 539.348 328.847 539.513 327.953C539.711 327.028 540.074 325.455 540.337 324.437C540.635 323.419 541.162 319.472 541.556 315.649C542.678 304.023 542.117 296.344 539.48 287.246C537.634 281.018 536.94 278.119 536.28 273.802L535.655 269.7L536.478 261.776C537.863 248.206 537.666 245.153 534.995 238.708C533.015 233.867 530.476 230.568 525.168 225.787C522.233 223.198 522.033 222.734 522.893 220.883C523.485 219.557 526.552 216.845 531.498 213.205C536.05 209.874 539.744 206.021 541.359 202.937C542.415 200.932 542.546 200.376 543.075 195.228C543.668 189.46 543.767 182.399 543.404 174.719C543.107 168.121 542.58 161.06 542.184 158.068C541.623 153.966 541.591 153.72 541.393 151.53C540.996 147.398 539.578 139.504 538.293 134.477C537.237 130.344 536.908 128.494 535.952 121.217C535.159 115.173 534.236 109.592 533.247 104.872C532.323 100.432 530.873 92.9692 529.026 83.255C528.696 81.3436 528.169 79.2462 527.872 78.5689C527.278 77.2433 526.387 74.159 524.442 66.7885C521.573 56.0874 520.451 52.0474 520.153 51.2766C519.528 49.7661 517.516 40.6992 516.989 37.1837C516.527 33.9156 515.967 30.9237 514.647 24.3863C513.921 20.7473 512.966 18.0027 511.184 14.3647C510.327 12.5758 509.305 10.0473 508.909 8.68954C507.623 4.09478 506.633 2.64561 503.994 1.28889C502.675 0.641696 501.751 0.425621 499.906 0.333164C498.587 0.271873 497.233 0.301989 496.871 0.394446ZM188.224 54.1448C188.851 55.0694 189.609 56.612 189.873 57.5366C190.137 58.4622 190.962 60.6209 191.654 62.3163C192.346 64.0127 193.072 66.1402 193.269 67.0347C193.929 70.0265 197.459 77.3046 199.931 80.6964C200.625 81.6521 201.778 83.5937 202.505 85.0138C203.23 86.4318 204.385 88.4368 205.077 89.4538C205.803 90.4718 206.626 91.921 206.956 92.6617C207.253 93.4325 207.813 94.3893 208.144 94.8505C208.804 95.6837 211.771 101.449 211.771 101.85C211.771 102.006 212.101 102.591 212.529 103.177C212.958 103.763 213.783 105.367 214.409 106.723C215.004 108.079 216.125 110.145 216.915 111.287C217.707 112.428 218.565 113.817 218.796 114.37C219.059 114.926 220.312 117.085 221.566 119.213C222.851 121.341 224.006 123.407 224.138 123.838C224.469 124.856 226.645 128.773 228.228 131.239C229.513 133.213 230.701 134.754 233.867 138.641C234.757 139.75 236.043 141.415 236.703 142.34C237.395 143.265 239.111 145.178 240.529 146.565C241.947 147.983 243.661 149.926 244.353 150.882C245.541 152.61 261.174 167.597 264.207 169.941C265.032 170.558 266.317 171.574 267.11 172.161C269.614 174.103 273.573 179.037 274.364 181.164C274.76 182.213 274.695 182.338 273.112 184.558C270.34 188.473 267.307 191.465 264.702 192.852C261.238 194.672 257.545 197.292 253.06 201.086C250.257 203.43 244.453 213.515 240.991 221.964C240.297 223.629 239.638 225.047 239.507 225.139C239.374 225.203 239.077 224.954 238.879 224.584C238.418 223.782 236.703 219.404 235.812 216.784C234.559 213.082 228.426 202.535 226.808 201.271C226.512 201.056 225.655 199.792 224.897 198.497C223.016 195.352 218.267 190.693 215.762 189.645C213.749 188.783 209.1 188.135 206.924 188.412C205.439 188.597 203.526 189.429 202.372 190.355C200.625 191.773 198.877 194.95 198.415 197.51C198.284 198.249 197.986 199.297 197.755 199.823C196.831 201.889 196.204 211.941 196.37 221.562L196.568 230.691L195.248 233.775C194.524 235.47 193.699 237.167 193.369 237.537C192.842 238.185 192.743 238.216 191.852 237.783C189.708 236.735 187.367 236.334 183.97 236.457C180.705 236.55 180.541 236.581 178.958 237.66C176.221 239.479 173.879 243.828 172.262 250.119C172.065 250.796 171.602 252.463 171.208 253.818C170.812 255.175 170.416 256.625 170.317 257.056C170.251 257.489 170.019 258.413 169.822 259.123L169.46 260.448L168.537 259.925C167.084 259.123 160.423 252.37 158.61 249.903C157.718 248.669 156.664 247.22 156.236 246.665C155.312 245.492 154.223 242.656 152.311 236.396C150.497 230.568 149.87 227.237 149.606 222.211C149.376 217.955 150.068 209.998 150.859 207.871C151.123 207.192 151.42 205.804 151.553 204.786C151.684 203.77 152.014 202.32 152.245 201.548C152.674 200.254 153.366 197.849 154.586 193.377C154.85 192.36 155.312 190.817 155.542 189.985C155.806 189.122 156.103 187.826 156.236 187.055C156.367 186.284 156.96 184.002 157.554 181.967C158.181 179.962 158.676 177.99 158.676 177.619C158.676 177.219 159.104 175.83 159.632 174.504C160.158 173.179 160.687 171.481 160.786 170.711C160.919 169.941 161.446 168.152 161.973 166.703C162.5 165.253 163.16 163.311 163.424 162.385C164.282 159.578 165.304 156.155 165.799 154.522C166.03 153.658 166.558 152.023 166.919 150.852C167.283 149.71 167.579 148.385 167.579 147.921C167.579 147.49 167.843 146.226 168.206 145.117C168.537 144.006 168.931 141.847 169.063 140.336C169.196 138.794 169.888 135.402 170.58 132.78C171.274 130.159 171.866 127.632 171.866 127.199C171.866 126.738 172.099 125.781 172.361 125.04C172.659 124.299 173.02 122.913 173.153 121.987C173.318 121.062 173.648 119.459 173.944 118.441C174.208 117.423 174.539 115.603 174.638 114.401C174.736 113.23 175.033 111.75 175.297 111.163C175.527 110.578 175.923 108.574 176.088 106.723C176.285 104.842 176.649 102.776 176.913 102.097C177.177 101.419 177.474 100.031 177.605 99.0142C177.738 97.9961 178.034 96.5469 178.299 95.7761C178.528 95.0043 178.892 93.2465 179.089 91.8285C179.287 90.4407 179.584 89.0226 179.781 88.7131C180.178 87.9745 180.442 85.7223 181.925 70.1803C182.717 62.0389 183.343 56.9819 183.74 55.6864C184.068 54.577 184.432 52.7258 184.563 51.555C184.661 50.3821 184.861 49.2727 184.96 49.1179C185.058 48.933 185.585 49.6425 186.114 50.6294C186.608 51.6163 187.564 53.2192 188.224 54.1448ZM495.322 54.9769C496.113 58.215 496.608 62.1314 496.871 67.4045C497.169 72.8012 498.09 78.3227 499.476 82.7315C500.104 84.7977 500.697 87.1413 500.796 87.9745C500.894 88.7754 501.059 90.2256 501.158 91.1491C501.257 92.0747 501.49 93.7411 501.687 94.8505C501.884 95.961 502.148 97.9649 502.312 99.3217C502.477 100.647 502.94 102.806 503.334 104.102C503.731 105.367 504.456 107.803 504.984 109.499C505.941 112.706 506.072 113.322 506.434 116.129C506.567 117.055 506.699 117.886 506.766 117.979C506.798 118.072 506.963 118.965 507.062 119.983C507.556 124.331 507.985 126.799 508.579 128.556C508.909 129.604 509.371 131.239 509.569 132.164C509.799 133.09 510.327 134.847 510.723 136.019C511.513 138.363 511.646 138.948 512.207 143.729C512.405 145.424 512.866 148.693 513.195 150.975C514.746 161.491 514.549 170.896 512.634 176.847C512.173 178.298 511.612 180.333 511.382 181.351C511.184 182.368 510.69 184.002 510.293 184.989C509.898 185.976 509.403 187.425 509.206 188.227C508.613 190.817 506.633 194.95 504.028 199.112C500.17 205.281 500.037 205.466 496.31 208.795C492.419 212.311 490.638 214.438 489.32 217.215C487.835 220.391 487.373 225.078 488.296 227.915C488.561 228.748 488.726 229.458 488.692 229.489C488.66 229.52 487.67 229.025 486.484 228.377C482.394 226.126 469.796 215.149 466.135 210.646C465.014 209.29 462.31 206.514 460.1 204.479C455.813 200.532 451.295 195.72 449.976 193.685C449.515 193.006 448.591 191.896 447.898 191.219C447.205 190.54 446.118 189.153 445.49 188.135C444.864 187.117 443.413 184.866 442.259 183.108C441.104 181.351 439.72 179.285 439.192 178.483C438.697 177.68 437.872 176.601 437.379 176.108C436.882 175.584 435.267 172.901 433.782 170.156C431.871 166.641 430.485 164.575 429.232 163.249C427.353 161.275 427.353 161.275 427.649 159.578C427.814 158.684 428.309 158.16 430.453 156.494C432.332 155.076 433.948 153.412 436.124 150.667C440.049 145.763 443.643 141.138 445.755 138.331C446.679 137.128 448.262 135.062 449.316 133.767C450.372 132.473 451.723 130.683 452.349 129.852C452.943 128.989 453.802 128.001 454.264 127.6C454.691 127.199 456.01 125.504 457.164 123.807C458.32 122.111 460.661 118.965 462.343 116.837C463.992 114.709 465.377 112.891 465.377 112.737C465.377 112.613 465.937 111.843 466.629 111.01C467.884 109.499 469.136 107.34 474.281 97.6886C476.623 93.2767 478.964 87.8498 480.415 83.44C480.646 82.6702 481.702 80.6964 482.69 79.0301C483.713 77.3971 484.802 75.2997 485.13 74.4052C485.461 73.542 486.153 71.9691 486.649 70.9521C487.869 68.3914 490.31 62.5947 491.068 60.4048C492.222 57.1979 494.332 52.3258 494.63 52.2946C494.662 52.2946 494.958 53.4976 495.322 54.9769ZM408.422 213.914C412.908 218.694 416.931 225.139 419.076 230.968C422.043 238.955 422.24 239.726 423.362 246.727C423.658 248.576 424.187 251.537 424.517 253.295C424.845 255.051 425.142 256.903 425.142 257.427C425.142 257.921 425.374 259.276 425.638 260.418C426.263 263.07 427.452 269.208 427.649 270.779C427.946 273.184 428.771 276.084 430.914 282.19C432.135 285.582 433.388 289.592 433.75 291.132C434.081 292.643 434.674 294.957 435.037 296.221C435.4 297.485 435.894 299.367 436.158 300.384C437.741 306.829 441.533 313.706 446.546 319.318C448.921 322.001 450.074 322.988 452.349 324.406C454.461 325.701 455.616 326.072 458.584 326.319C461.749 326.596 463.662 326.287 465.246 325.332C468.082 323.604 469.236 321.138 469.465 316.451C469.566 314.199 469.433 313.305 468.806 311.516C467.751 308.402 465.871 303.499 465.543 302.974C465.246 302.481 463.332 299.706 462.045 297.886C461.551 297.177 461.057 296.283 460.924 295.881C460.76 295.481 460.299 294.586 459.869 293.939C459.407 293.291 458.782 291.996 458.451 291.132C458.122 290.238 457.626 289.158 457.364 288.758C457.066 288.388 456.539 286.723 456.143 285.118C455.747 283.515 455.22 281.695 454.988 281.111C454.163 279.014 453.208 274.11 453.043 271.088C452.943 269.392 452.78 267.665 452.681 267.234C452.516 266.462 452.317 263.779 452.021 258.136C451.856 254.96 451.79 254.529 450.999 250.611C450.766 249.347 450.603 248.268 450.668 248.206C450.833 248.022 455.417 250.488 457.164 251.722C458.088 252.37 459.703 253.603 460.727 254.466C465.376 258.413 468.939 260.51 473.555 262.022C479.36 263.934 483.91 265.044 487.439 265.414C490.606 265.784 490.935 265.876 491.728 266.709C492.189 267.234 493.178 268.221 493.936 268.898C494.662 269.607 495.783 270.779 496.376 271.551C497.004 272.321 498.223 273.74 499.114 274.697C500.005 275.684 500.63 276.484 500.532 276.484C500.4 276.484 499.444 276.145 498.389 275.714C496.147 274.85 489.979 274.141 486.614 274.417C484.307 274.573 481.008 275.869 478.799 277.471C476.687 278.983 474.38 281.295 473.654 282.621C472.169 285.335 471.61 296.005 472.765 300.074C474.479 306.243 476.458 311.27 478.535 314.723C479.195 315.834 479.92 317.128 480.151 317.622C481.833 321.199 488.791 328.847 493.474 332.208C494.991 333.318 497.893 335.446 499.18 336.401C499.74 336.835 500.763 337.481 501.49 337.883C502.643 338.499 504.688 339.856 508.413 342.385C508.941 342.755 510.228 343.618 511.217 344.266C513.459 345.716 516.196 347.72 519.593 350.433C521.968 352.314 523.418 353.547 528.135 357.619L529.752 358.975L526.156 358.698C522.265 358.389 518.473 358.729 514.35 359.777C513.096 360.085 510.557 360.61 508.744 360.949C506.931 361.257 504.49 361.751 503.302 362.028C502.115 362.305 499.674 362.799 497.861 363.108C496.047 363.447 493.936 363.94 493.146 364.187C492.353 364.464 490.969 364.743 490.011 364.866C489.056 364.989 487.803 365.267 487.175 365.482C486.582 365.73 485.856 365.915 485.592 365.915C484.767 365.915 477.612 368.842 474.281 370.54C470.554 372.452 466.036 375.782 462.771 379.051C458.716 383.091 456.769 387.593 455.978 394.594C455.417 399.773 455.516 400.914 456.769 404.121C459.506 411.122 464.585 417.352 477.315 429.44C478.305 430.365 480.348 432.091 481.867 433.295C483.384 434.466 485.164 435.946 485.824 436.533C489.352 439.74 491.858 441.312 497.96 444.181C500.565 445.414 503.369 446.863 504.226 447.419C505.083 447.972 506.072 448.559 506.434 448.774C509.932 450.748 511.548 451.705 511.678 451.89C511.91 452.228 510.129 458.457 508.974 461.357C507.358 465.397 506.963 466.166 505.313 468.605C504.424 469.868 503.302 471.594 502.808 472.458C501.687 474.309 495.124 480.476 493.079 481.648C491.76 482.357 489.648 483.344 486.318 484.794C484.834 485.44 480.382 486.799 477.248 487.569C475.699 487.971 473.358 488.586 472.006 488.924C468.84 489.789 462.705 490.807 460.563 490.807C459.639 490.807 458.088 490.929 457.099 491.085C456.109 491.239 454.494 491.455 453.504 491.547C452.516 491.639 451.263 491.793 450.702 491.855C450.174 491.947 449.25 492.07 448.69 492.164C448.097 492.226 443.742 491.947 438.962 491.547C431.838 490.929 429.463 490.591 425.967 489.757C423.626 489.173 420.79 488.617 419.701 488.493C417.69 488.309 415.711 487.878 408.324 486.151C406.049 485.625 403.442 485.071 402.486 484.948C398.199 484.331 388.108 481 380.952 477.854C370.134 473.106 366.177 470.701 356.711 463.176C354.37 461.327 351.171 458.827 349.622 457.655C348.071 456.484 346.752 455.466 346.653 455.374C346.555 455.25 345.532 454.417 344.346 453.493C343.158 452.568 342.135 451.705 342.037 451.612C341.476 450.995 334.485 446.216 332.407 445.044C331.055 444.273 327.13 442.514 323.701 441.127C320.271 439.74 315.456 437.736 313.016 436.686C305.134 433.233 302.594 432.554 295.042 431.844C287.754 431.167 286.698 431.228 282.016 432.739C276.375 434.559 273.046 436.871 272.155 439.585C271.462 441.776 270.736 450.039 270.936 453.493C271.232 458.673 272.682 461.758 276.97 466.136C280.73 469.991 284.094 473.907 288.281 479.241C290.359 481.864 293.196 485.04 296.724 488.617C299 490.96 300.779 493.614 303.155 498.207C304.276 500.335 305.497 502.678 305.892 503.45C307.046 505.578 309.684 509.587 311.169 511.436C313.147 513.843 314.103 515.353 315.488 518.283C316.182 519.701 317.138 521.428 317.6 522.106C318.061 522.785 318.786 524.018 319.216 524.882C319.644 525.716 320.337 526.856 320.764 527.38C321.227 527.936 322.679 530.835 324.031 533.855C327.164 540.949 328.483 543.415 330.724 546.284C331.715 547.579 333.825 550.508 335.441 552.791C338.146 556.646 341.246 560.438 346.688 566.544C349.687 569.843 356.482 575.764 359.582 577.707C364.561 580.853 370.794 584.06 379.006 587.761C385.173 590.535 386.557 590.937 391.604 591.368L396.154 591.738L396.848 593.003C398.067 595.224 400.738 598.738 402.717 600.682C403.774 601.73 404.564 602.717 404.465 602.871C404.201 603.272 399.288 602.778 397.341 602.161C396.385 601.854 394.506 601.113 393.155 600.527C391.801 599.941 389.723 599.139 388.536 598.77C385.964 597.905 377.554 594.822 376.171 594.237C375.642 594.021 374.323 593.527 373.234 593.188C370.892 592.447 365.386 589.703 362.583 587.884C354.997 582.98 352.425 581.254 349.985 579.404C348.467 578.263 346.522 576.782 345.665 576.166C344.806 575.549 341.014 572.187 337.223 568.673C333.429 565.157 329.34 561.548 328.153 560.654C326.964 559.729 325.25 558.249 324.361 557.323C323.47 556.398 321.195 554.395 319.282 552.882C315.852 550.109 313.708 548.011 311.267 544.958C310.576 544.095 308.86 542.212 307.441 540.764C306.058 539.314 303.881 536.878 302.627 535.367C301.407 533.825 298.142 530.063 295.404 526.949C292.667 523.864 289.6 520.073 288.611 518.56C286.566 515.477 282.18 509.525 279.806 506.596C277.894 504.221 271.793 498.361 269.978 497.128C269.254 496.636 267.967 495.679 267.142 494.969C266.317 494.291 264.635 492.934 263.35 491.977C260.315 489.635 252.071 481.802 245.475 474.955C242.836 472.211 237.956 472.335 235.251 475.203C233.999 476.56 233.075 479.272 233.339 480.939C233.734 483.653 233.867 483.807 246.036 495.525C248.905 498.3 253.093 501.878 257.183 505.054C262.69 509.372 264.867 511.221 266.581 513.071C268.56 515.168 274.166 522.631 277.037 526.918C278.025 528.397 280.663 531.635 282.906 534.164C285.149 536.693 287.853 539.777 288.875 541.042C292.7 545.728 293.459 546.622 296.857 550.262C298.768 552.297 301.505 555.318 302.958 556.953C304.408 558.618 306.486 560.654 307.574 561.486C308.662 562.35 311.334 564.663 313.51 566.636C315.687 568.61 318.061 570.646 318.786 571.139C319.479 571.663 322.382 574.222 325.218 576.843C334.815 585.817 339.564 589.64 346.488 593.989C347.775 594.791 349.687 596.086 350.775 596.857C353.315 598.708 355.625 600.095 359.515 602.193C363.538 604.32 365.55 605.215 371.223 607.281C373.763 608.206 376.796 609.316 377.983 609.747C380.49 610.673 383.788 611.813 385.898 612.524C386.723 612.77 388.108 613.326 388.998 613.757C391.01 614.713 394.834 615.884 396.781 616.162C398.727 616.438 410.996 616.749 416.403 616.656L420.691 616.564L424.187 620.078C430.32 626.184 431.278 627.201 434.047 630.472C436.257 633.092 436.719 633.771 436.421 634.171C436.223 634.448 435.729 635.282 435.301 636.022C434.245 637.901 432.696 638.981 429.265 640.216C423.956 642.126 421.119 642.528 410.302 642.991C405.323 643.206 402.092 643.793 400.31 644.78C399.155 645.426 395.627 648.203 391.208 651.904C390.02 652.889 387.844 654.555 386.392 655.572C384.942 656.59 383.03 658.069 382.106 658.872C380.061 660.691 372.345 665.44 370.563 665.966C369.837 666.181 368.056 666.397 366.606 666.397C362.418 666.458 360.636 665.44 354.535 659.767C352.425 657.793 349.852 655.572 348.765 654.831C347.709 654.093 346.357 653.137 345.764 652.674C343.719 651.071 339.366 650.145 331.813 649.743C328.582 649.589 327.856 649.651 321.096 650.947L313.841 652.335L309.059 651.904L304.277 651.471L300.483 649.312C296.064 646.815 290.524 642.621 289.106 640.647C288.577 639.906 287.259 638.303 286.171 637.132C284.456 635.219 283.566 633.74 281.52 629.423C281.191 628.744 280.3 626.523 279.509 624.427C277.597 619.338 276.409 617.025 274.199 613.879C272.089 610.826 267.275 606.294 265.163 605.307C262.294 603.981 259.327 602.778 256.919 602.038C254.115 601.143 250.126 599.572 246.003 597.752C242.903 596.365 243.068 596.487 238.153 590.566C233.01 584.337 230.734 580.206 225.424 567.285C224.599 565.342 223.775 563.491 223.511 563.122C223.281 562.781 222.688 561.609 222.226 560.499C221.401 558.587 220.411 556.429 217.938 551.093C214.08 542.738 211.639 540.331 206.165 539.561C201.085 538.852 198.546 538.852 195.117 539.531C193.304 539.9 190.863 540.579 189.676 541.072C188.488 541.535 187.136 541.997 186.643 542.12C185.85 542.305 185.718 542.212 185.718 541.627C185.718 541.225 185.882 540.425 186.047 539.839C186.245 539.252 186.773 537.495 187.202 535.952C187.663 534.381 188.455 532.161 188.982 530.989C190.137 528.459 190.632 525.036 190.501 520.411C190.401 516.094 189.543 513.719 185.222 505.67C183.376 502.155 181.662 498.733 181.431 498.054C181.2 497.374 180.672 496.11 180.277 495.278C178.067 490.807 175.725 486.335 175.066 485.317C174.208 484.053 172.163 479.149 170.053 473.23C169.261 471.102 167.744 467.772 166.623 465.828C161.611 457.039 159.203 451.334 157.851 445.075C157.785 444.765 157.555 443.471 157.357 442.176C157.192 440.911 156.96 439.771 156.896 439.647C156.796 439.522 156.664 438.599 156.532 437.612C156.433 436.594 156.202 435.144 156.004 434.374C155.675 432.893 155.047 423.612 155.213 422.532C155.278 422.161 155.411 420.743 155.542 419.325C155.641 417.905 155.971 416.303 156.202 415.778C156.433 415.224 156.73 413.929 156.861 412.942C157.125 410.566 158.972 405.602 160.885 402.118C161.709 400.607 163.16 397.893 164.117 396.104C167.183 390.369 174.042 380.438 177.078 377.323C181.332 372.945 187.5 364.556 188.322 362.028C188.488 361.535 189.214 359.87 189.94 358.359C190.664 356.817 191.324 355.152 191.456 354.627C191.654 353.857 191.918 353.609 192.643 353.455C193.171 353.363 194.423 352.561 195.48 351.605C196.93 350.309 197.854 349.756 199.702 349.169C203.955 347.812 209.693 346.671 216.883 345.746C219.059 345.469 222.191 345.036 223.808 344.79C225.457 344.544 229.382 344.111 232.549 343.864C235.713 343.587 238.615 343.341 239.01 343.248C239.374 343.187 240.495 343.031 241.485 342.939C250.39 342.014 257.941 339.332 262.557 335.415C265.559 332.887 267.735 329.372 268.824 325.27L269.187 323.975H276.739C280.959 323.975 284.655 323.852 285.149 323.665C285.874 323.419 286.203 323.48 287.06 324.099C288.842 325.332 291.018 325.917 293.129 325.763C294.779 325.639 295.537 325.332 298.571 323.573C300.55 322.463 302.99 320.983 304.012 320.274C305.068 319.565 307.377 318.115 309.158 317.036L312.356 315.093L312.553 315.926C313.609 320.551 317.105 324.993 322.019 327.89C326.801 330.758 328.78 331.345 333.626 331.377C336.825 331.377 342.96 329.279 345.235 327.398C345.961 326.811 346.818 326.472 347.94 326.319C352.525 325.763 357.569 324.16 363.408 321.477C368.222 319.225 368.913 318.702 370.233 316.265C370.959 314.939 371.058 311.393 370.43 309.696C369.573 307.353 363.309 300.723 359.186 297.762C358.361 297.177 356.514 295.788 355.064 294.648C351.072 291.563 346.357 289.436 343.455 289.436C342.795 289.436 341.476 289.066 340.552 288.635C337.188 287.092 330.165 286.723 325.614 287.864C324.096 288.233 320.601 289.56 317.863 290.793C315.093 292.058 312.521 293.168 312.124 293.261C311.201 293.537 304.044 297.978 300.055 300.785C298.339 302.018 296.822 303.005 296.692 303.005C296.493 303.005 294.779 304.053 289.864 307.23C287.819 308.524 286.501 309.173 285.181 309.419C284.159 309.635 282.51 309.944 281.52 310.159C280.531 310.344 279.608 310.437 279.509 310.313C279.411 310.222 280.235 309.604 281.356 308.958C282.476 308.309 283.928 307.476 284.556 307.076C285.181 306.706 287.589 305.471 289.864 304.362C299.164 299.859 301.473 298.195 305.134 293.291C306.947 290.917 307.772 289.497 311.63 282.652C313.708 278.922 315.291 274.882 315.555 272.63C315.653 271.797 315.983 270.256 316.313 269.239C316.642 268.221 317.005 266.278 317.105 264.921C317.237 263.564 317.6 261.343 317.929 259.987C318.292 258.63 318.82 256.471 319.149 255.207C319.446 253.942 319.777 252.801 319.843 252.678C319.907 252.554 320.963 252.955 322.182 253.572C323.403 254.19 324.921 254.96 325.58 255.268C326.833 255.854 330.989 256.44 334.187 256.44C336.232 256.44 339.959 255.331 342.202 254.034C344.048 252.955 347.842 249.317 350.083 246.479C352.952 242.81 354.172 240.928 356.711 236.426C357.966 234.145 359.284 232.14 359.582 231.955C360.406 231.492 365.188 233.681 367.266 235.47C368.189 236.272 369.64 237.444 370.531 238.124C371.42 238.77 372.806 240.282 373.663 241.484C374.488 242.656 376.696 245.03 378.544 246.727C381.546 249.501 382.106 250.149 383.754 253.202C387.217 259.556 389.163 264.55 390.714 271.18C390.976 272.26 391.571 274.049 392.033 275.128C393.253 277.965 395.331 283.547 396.484 287.123C397.045 288.79 397.836 290.886 398.266 291.75C398.695 292.581 400.046 295.296 401.234 297.762C402.454 300.229 404.07 303.312 404.894 304.609C407.797 309.326 410.534 314.631 411.754 317.807C413.832 323.234 414.061 323.728 416.008 326.472C418.943 330.636 421.812 333.226 425.142 334.707C429.496 336.648 435.037 337.235 437.84 336.033C440.94 334.737 442.423 332.763 442.951 329.31C443.512 325.578 443.347 323.821 442.094 319.874C440.708 315.495 440.676 315.402 437.147 308.804C434.378 303.622 432.629 300.106 430.519 295.296C429.892 293.847 429.232 292.52 429.099 292.365C428.968 292.181 428.144 290.454 427.287 288.512C425.77 285.057 423.988 281.727 422.109 278.952C420.921 277.194 419.337 273.338 418.712 270.687C417.097 263.934 416.272 259.525 415.941 255.977C415.316 249.563 415.25 249.162 414.095 244.105C413.832 242.995 413.534 241.267 413.401 240.251C413.303 239.233 412.94 237.29 412.611 235.934C412.281 234.576 411.918 232.973 411.786 232.386C411.655 231.801 411.293 230.412 410.961 229.303C410.633 228.192 410.237 226.528 410.136 225.602C410.006 224.677 409.775 223.69 409.643 223.444C409.445 223.074 408.356 219.189 407.829 216.968C407.4 215.117 407.17 214.377 406.642 213.02C405.85 211.016 405.85 210.708 406.609 211.756C406.906 212.218 407.731 213.174 408.422 213.914ZM525.993 293.322C527.475 298.811 527.872 306.458 527.047 314.477C526.684 317.839 526.254 320.829 526.091 321.138C525.926 321.414 525.694 322.34 525.562 323.204C525.397 324.037 525.101 325.27 524.871 325.886C524.639 326.535 524.276 328.2 524.078 329.588C523.715 332.456 523.122 334.707 522.76 334.922C522.495 335.076 520.682 333.966 516.922 331.377C515.802 330.605 513.724 329.249 512.306 328.323C504.918 323.512 500.961 320.551 497.893 317.469C496.047 315.649 493.739 312.718 493.739 312.196C493.739 312.041 494.266 311.947 494.892 311.947C497.893 311.947 502.675 309.665 504.258 307.507C506.007 305.133 506.402 303.592 506.434 298.78C506.434 296.375 506.533 294.34 506.6 294.278C506.699 294.185 507.82 294.37 509.073 294.679C512.899 295.573 515.834 295.727 518.011 295.142C520.121 294.586 523.221 293.106 524.243 292.181C525.168 291.348 525.496 291.563 525.993 293.322ZM530.873 372.852C533.973 373.098 537.237 373.532 538.128 373.778C539.017 374.024 541.228 374.395 543.041 374.58C547.989 375.041 553.825 376.892 557.585 379.173C559.333 380.253 559.894 380.84 561.443 383.307C562.433 384.879 563.422 386.79 563.653 387.531C563.851 388.272 564.247 389.567 564.478 390.43C565.928 395.21 566.457 400.822 565.632 402.764C565.401 403.259 565.039 404.462 564.774 405.449C564.543 406.404 564.016 407.73 563.619 408.377C563.224 409.025 562.169 410.876 561.245 412.478C559.795 415.069 558.311 417.29 557.717 417.721C557.585 417.814 557.025 418.555 556.398 419.418C554.155 422.563 547.559 428.022 540.568 432.461C536.083 435.298 534.17 436.564 533.973 436.81C533.874 436.902 532.983 437.612 531.994 438.382C531.004 439.154 529.487 440.417 528.596 441.22C527.707 442.053 526.815 442.699 526.652 442.699C524.969 442.699 517.649 439.339 512.932 436.41C511.152 435.331 507.358 433.326 504.424 431.937C500.235 429.965 498.686 429.07 497.004 427.589C495.85 426.54 494.232 425.215 493.409 424.599C492.585 423.981 491.167 422.841 490.243 422.069C489.352 421.298 488.296 420.436 487.934 420.156C486.713 419.201 475.963 408.007 474.281 405.91C473.358 404.769 472.071 402.827 471.445 401.594C470.324 399.465 470.29 399.28 470.488 396.906C470.586 395.549 471.049 393.297 471.511 391.911C472.269 389.628 472.565 389.165 474.38 387.438C477.347 384.663 479.821 383.091 484.505 381.086C489.352 378.99 490.868 378.589 504.127 375.874C505.412 375.598 507.391 375.165 508.579 374.857C509.766 374.549 511.481 374.209 512.372 374.116C513.294 373.993 515.504 373.562 517.318 373.162C521.045 372.329 522.43 372.144 524.078 372.297C524.705 372.36 527.773 372.606 530.873 372.852ZM566.291 437.766C566.291 438.197 566.655 439.771 567.083 441.312C568.171 445.199 568.336 446.77 567.941 450.131C567.709 452.228 567.314 453.771 566.423 455.806C565.763 457.317 564.676 460.031 563.983 461.819C562.3 466.166 559.069 472.396 557.288 474.678C556.036 476.221 555.408 476.714 553.298 477.639C551.914 478.288 550.725 478.78 550.626 478.78C550.56 478.78 548.944 479.458 547.097 480.291C541.195 482.881 531.663 484.546 528.003 483.591C527.015 483.344 525.266 483.035 524.078 482.943C521.736 482.696 518.671 481.495 516.856 480.074L515.768 479.211L516.493 477.823C516.922 477.084 517.814 475.666 518.538 474.678C519.232 473.722 520.682 470.855 521.736 468.356C523.485 464.287 524.112 462.406 525.397 457.809L525.761 456.422L527.509 456.515C529.519 456.638 532.422 455.806 534.401 454.51C535.127 454.017 536.777 452.723 538.095 451.581C541.03 448.99 545.877 445.383 547.823 444.303C549.339 443.471 553.397 440.696 557.552 437.643C558.839 436.718 560.883 434.99 562.169 433.818L564.444 431.691L565.367 434.344C565.862 435.792 566.291 437.334 566.291 437.766ZM359.021 482.11C360.834 483.282 363.538 484.886 365.055 485.719C368.913 487.784 381.94 493.49 384.909 494.384C391.9 496.543 397.969 498.207 398.66 498.207C399.123 498.207 400.475 498.453 401.662 498.794C405.025 499.656 406.972 500.089 409.477 500.52C413.172 501.168 413.337 501.26 415.38 504.467C416.403 506.07 417.228 507.49 417.228 507.644C417.228 507.768 418.019 509.093 418.977 510.543C419.965 511.992 421.745 514.953 422.966 517.173C424.912 520.658 426.428 522.939 427.121 523.495C427.484 523.803 432.3 529.848 434.806 533.209C438.598 538.267 439.918 540.27 441.961 544.002C442.983 545.852 445.787 550.786 448.195 554.948C450.635 559.112 453.306 563.737 454.131 565.28C454.956 566.79 455.944 568.518 456.341 569.072C456.769 569.628 457.692 571.231 458.384 572.62C460.76 577.184 463.2 579.034 466.893 579.034C470.686 579.034 473.687 576.104 473.654 572.403C473.654 570.461 472.928 568.178 471.906 566.883C471.478 566.329 470.918 565.465 470.653 564.97C470.389 564.448 469.532 563.03 468.773 561.794C467.983 560.53 467.355 559.451 467.355 559.328C467.355 559.236 466.565 557.818 465.575 556.213C464.618 554.58 462.904 551.649 461.815 549.706C458.32 543.384 457.428 541.905 456.737 540.979C456.341 540.487 455.582 539.067 455.022 537.865C453.834 535.367 451.295 531.42 448.326 527.566C447.205 526.084 445.821 524.172 445.293 523.311C444.765 522.446 443.579 520.904 442.722 519.917C438.896 515.568 436.19 511.745 434.674 508.538C434.279 507.675 433.585 506.472 433.157 505.824C432.53 504.898 432.497 504.683 432.893 504.683C433.189 504.683 436.621 504.961 440.577 505.332C447.833 505.978 448.03 505.978 454.988 505.147C455.714 505.054 457.858 504.837 459.77 504.652C461.683 504.467 464.519 504.16 466.068 503.944L468.906 503.573L469.334 506.226C469.566 507.675 469.928 509.464 470.192 510.234C470.423 511.005 470.884 512.578 471.147 513.781C471.445 514.953 472.467 518.283 473.424 521.182C476.029 528.984 476.524 530.556 476.92 532.592C477.085 533.609 477.48 535.121 477.777 535.983C478.437 537.896 480.481 541.905 480.909 542.151C481.074 542.275 481.603 543.015 482.03 543.847C484.372 548.165 486.582 550.816 492.222 556.028C497.233 560.684 503.433 567.408 509.403 574.684C511.152 576.812 513.724 580.483 515.472 583.32C516.033 584.245 517.12 585.817 517.912 586.774C521.771 591.614 522.561 592.725 523.485 594.483C524.046 595.563 524.836 597.536 525.299 598.892C525.728 600.249 526.618 603.025 527.278 605.061C528.63 609.255 529.255 611.691 529.554 614.157C529.652 615.082 529.816 615.946 529.883 616.038C529.949 616.162 529.784 618.228 529.519 620.663C529.157 624.273 528.827 625.782 527.773 628.652C525.595 634.633 525.134 635.282 517.912 642.467C513.592 646.753 511.349 648.203 506.271 649.868C501.522 651.44 501.588 651.409 494.729 652.426C485.528 653.783 483.12 653.568 471.312 650.36C468.213 649.528 465.805 648.11 463.564 645.859C462.409 644.687 461.089 643.144 460.661 642.436C460.2 641.726 458.32 639.137 456.505 636.668C454.659 634.202 451.955 630.533 450.47 628.497C449.02 626.462 447.041 623.901 446.083 622.792C445.162 621.681 443.808 620.078 443.149 619.245C441.6 617.302 434.146 609.932 430.255 606.479C428.639 605.03 426.363 602.995 425.275 601.976C424.153 600.958 421.647 598.8 419.701 597.196C414.194 592.632 410.796 588.871 408.718 584.954C408.39 584.306 407.17 582.055 406.049 579.927C404.927 577.799 403.872 575.827 403.675 575.517C403.475 575.21 403.015 574.377 402.617 573.668C402.255 572.959 401.299 571.477 400.541 570.367C399.091 568.271 391.175 553.839 391.175 553.315C391.175 552.667 388.372 547.055 384.942 540.918C384.447 540.054 383.524 538.267 382.832 536.908C382.172 535.552 380.654 532.901 379.468 531.05C378.313 529.169 376.731 526.486 375.971 525.036C375.213 523.587 373.828 521.089 372.871 519.486C371.882 517.883 370.828 515.94 370.531 515.168C369.837 513.533 366.012 507.119 364.956 505.763C364.067 504.652 361.824 500.274 360.869 497.776C360.471 496.789 359.779 495.371 359.35 494.662C358.89 493.952 358.228 492.564 357.867 491.577C357.504 490.591 356.844 489.204 356.415 488.524C355.987 487.815 355.459 486.704 355.228 486.027C354.997 485.348 354.404 483.961 353.908 482.943C352.26 479.674 350.942 476.868 350.942 476.714C350.942 476.653 352.028 477.362 353.348 478.288C354.635 479.241 357.208 480.969 359.021 482.11ZM190.368 610.21C190.994 610.58 191.686 611.104 191.951 611.321C192.215 611.567 193.468 612.369 194.754 613.17C196.041 613.942 197.854 615.113 198.744 615.761C199.667 616.408 200.559 617.056 200.724 617.179C201.384 617.612 204.021 619.646 205.01 620.448C205.571 620.911 207.055 621.835 208.307 622.545C209.595 623.255 211.146 624.181 211.771 624.642C212.397 625.105 213.981 626.184 215.266 626.985C216.553 627.819 218.697 629.392 220.015 630.502C221.302 631.612 224.138 633.956 226.248 635.743C228.359 637.532 230.832 639.475 231.724 640.06C232.613 640.647 233.999 641.603 234.824 642.158C235.649 642.743 237.593 643.978 239.143 644.933C240.693 645.889 242.276 646.938 242.671 647.246C244.254 648.541 250.323 651.871 253.819 653.352C260.448 656.19 266.12 657.947 273.935 659.643C277.266 660.383 280.137 661.031 281.851 661.492C282.774 661.741 284.094 661.987 284.818 662.109C286.203 662.294 289.039 662.943 291.679 663.682C292.536 663.929 294.25 664.268 295.471 664.423C296.692 664.577 298.472 664.916 299.46 665.194C301.011 665.594 305.134 665.996 314.663 666.735C315.852 666.828 317.203 666.983 317.699 667.045C318.161 667.106 321.128 666.953 324.294 666.704C327.426 666.427 331.418 666.181 333.132 666.151C334.847 666.088 337.09 665.966 338.08 665.81L339.892 665.594L343.85 669.326C347.545 672.811 351.171 675.556 353.908 677.004C354.568 677.313 356.415 678.084 358.031 678.702C360.505 679.625 361.593 679.842 364.462 679.996C369.87 680.335 375.445 679.318 379.105 677.374C382.534 675.556 390.351 670.529 392.197 668.924C393.384 667.876 395.528 666.181 396.979 665.164C398.397 664.114 400.509 662.51 401.595 661.617C407.763 656.59 407.301 656.868 409.477 656.806C411.226 656.744 413.666 656.621 419.866 656.251C428.242 655.788 439.192 651.934 444.105 647.709L445.854 646.228L446.644 647.246C447.073 647.771 448.163 649.282 449.052 650.545C449.942 651.809 451.162 653.445 451.79 654.185C452.416 654.894 452.878 655.542 452.812 655.603C451.955 656.313 442.754 661.802 439.324 663.651C424.714 671.516 406.839 678.176 392.165 681.229C391.9 681.292 390.944 681.507 390.02 681.692C375.081 684.961 357.272 686.441 341.773 685.732C337.484 685.547 333.528 685.332 332.967 685.239C332.44 685.177 331.154 685.052 330.165 684.96C326.964 684.683 324.756 684.437 322.909 684.16C321.921 684.004 320.436 683.789 319.611 683.696C317.6 683.45 311.169 682.371 309.552 682.001C298.275 679.471 291.942 677.807 284.983 675.556C260.843 667.691 237.659 655.203 218.037 639.506C207.285 630.872 196.105 619.986 187.796 610.024L184.96 606.664L187.136 608.052C188.322 608.853 189.775 609.809 190.368 610.21ZM471.049 665.532C471.445 666.334 471.644 667.537 471.644 669.204C471.644 670.559 471.873 672.287 472.137 673.057C472.402 673.829 472.829 675.679 473.094 677.22C473.39 678.732 473.819 680.766 474.116 681.692C474.644 683.45 475.171 687.428 475.766 694.335C476.458 702.508 476.589 705.375 476.754 713.147C476.82 717.987 476.952 723.6 477.019 725.635C477.085 727.67 476.952 731.217 476.722 733.5C476.359 737.508 476.556 744.694 477.085 746.329C477.216 746.698 477.15 747.282 476.952 747.592C476.787 747.931 476.458 749.041 476.293 750.028C475.468 754.377 474.973 756.288 474.215 758.324C472.73 762.177 472.302 763.875 471.94 767.267C471.742 769.087 471.379 771.153 471.115 771.83C470.851 772.509 470.126 778.151 469.5 784.35C468.872 790.549 468.146 796.316 467.884 797.149C467.619 798.012 467.158 801.126 466.861 804.086C466.235 810.779 465.014 815.497 463.596 816.883C463.233 817.255 461.815 817.901 460.496 818.272C457.527 819.135 455.022 820.462 451.824 822.928C450.502 823.946 448.656 825.026 447.733 825.364C446.842 825.674 444.665 826.444 442.951 827.061C441.237 827.677 439.29 828.51 438.664 828.912C436.322 830.391 431.507 832.55 429.265 833.106C428.012 833.413 425.241 833.844 423.163 834.029C421.087 834.246 419.273 834.463 419.174 834.493C419.076 834.555 417.525 834.77 415.711 834.924C413.93 835.109 412.083 835.326 411.621 835.387C409.477 835.726 404.86 835.942 397.606 836.034C389.625 836.157 387.448 836.281 381.447 836.836C379.631 836.99 370.662 837.175 361.494 837.236C352.326 837.299 343.125 837.423 341.047 837.516C336.694 837.669 317.302 836.188 314.5 835.449C312.092 834.801 311.037 834.678 300.483 833.844C297.251 833.568 294.515 833.106 288.446 831.717C287.358 831.471 285.742 831.193 284.818 831.101C283.928 830.978 282.048 830.638 280.631 830.299C279.245 829.991 277.63 829.712 277.069 829.712C276.508 829.712 274.893 829.436 273.507 829.127C271.264 828.571 265.724 827.955 258.271 827.4C256.919 827.307 255.27 827.153 254.61 827.061L253.391 826.907L253.193 824.533C253.06 823.237 253.06 821.603 253.159 820.923C253.292 820.246 253.127 818.642 252.862 817.378C252.598 816.114 252.269 814.232 252.17 813.214C252.037 812.197 251.872 810.933 251.773 810.438C251.709 809.915 251.576 808.403 251.511 807.047C251.279 802.945 251.081 800.942 250.752 799.491C250.554 798.72 250.323 797.426 250.192 796.593C249.961 794.929 248.245 790.519 247.058 788.545C244.353 784.043 240.693 780.125 235.053 775.716C234.527 775.315 233.273 774.298 232.251 773.495C231.229 772.663 229.382 771.368 228.129 770.627C225.82 769.209 213.914 763.412 213.354 763.412C213.189 763.412 211.837 762.918 210.353 762.301C208.868 761.685 206.692 760.852 205.506 760.483C196.403 757.522 196.27 757.46 193.699 754.346C191.193 751.324 188.653 746.944 187.334 743.306C186.576 741.117 186.542 740.469 187.268 739.789C187.761 739.358 188.29 739.297 191.324 739.482C193.237 739.604 195.315 739.758 195.942 739.822C196.568 739.884 197.755 740.007 198.58 740.099C199.405 740.191 200.788 740.469 201.68 740.745C202.57 740.993 203.659 741.209 204.087 741.209C204.516 741.209 206 741.486 207.418 741.856C208.804 742.196 210.847 742.72 211.936 742.966C214.409 743.552 219.983 745.465 223.479 746.883C224.929 747.501 226.348 747.993 226.611 747.993C226.909 747.993 228.524 748.425 230.239 748.949C231.953 749.474 233.67 749.967 234.065 750.028C235.152 750.213 239.539 751.972 240.1 752.433C241.189 753.327 249.234 757.306 258.996 761.808C264.571 764.398 269.22 766.495 269.318 766.495C269.417 766.495 271.099 767.05 273.046 767.699C281.224 770.535 285.181 771.769 286.27 771.923C293.658 772.817 299.297 772.725 306.75 771.584C311.201 770.873 312.685 770.535 314.928 769.548C317.336 768.5 322.118 765.849 322.579 765.293C322.679 765.169 324.294 763.905 326.206 762.457C333.693 756.689 336.199 753.235 338.87 744.878C339.629 742.473 340.256 738.094 340.157 735.813C340.058 733.067 339.266 728.072 338.574 725.635C337.684 722.49 334.815 715.706 333.693 714.071C333.298 713.486 332.737 712.653 332.473 712.222C330 708.058 328.185 705.931 323.14 701.181L319.117 697.388L320.764 697.604C321.688 697.697 322.711 697.851 323.074 697.912C323.701 698.036 330.956 698.684 335.936 699.116C337.223 699.208 341.97 699.332 346.488 699.393C358.031 699.547 366.507 699.085 376.829 697.697C383.59 696.801 383.326 696.833 388.701 695.814C415.415 690.82 441.005 680.366 463.068 665.44L466.201 663.312L468.345 663.837C470.29 664.299 470.522 664.453 471.049 665.532Z" fill="#FFBC51"/>
</svg>
