<svg
  width="890"
  height="943"
  viewBox="0 0 890 943"
  fill="none"
  xmlns="http://www.w3.org/2000/svg"
>
  <path
    d="M665.843 372.885C668.177 373.767 670.511 374.649 672.846 375.529C677.712 377.368 682.574 379.218 687.432 381.079C693.641 383.456 699.86 385.81 706.082 388.156C710.892 389.972 715.699 391.796 720.505 393.624C722.797 394.495 725.09 395.364 727.383 396.231C730.588 397.445 733.789 398.671 736.989 399.899C738.806 400.592 740.623 401.285 742.496 402C750.183 405.303 756.142 408.328 760.791 415.418C761.595 416.625 762.4 417.832 763.228 419.076C764.073 420.383 764.917 421.69 765.788 423.037C766.695 424.409 767.602 425.781 768.537 427.194C771.488 431.664 774.413 436.15 777.338 440.637C779.36 443.711 781.385 446.784 783.411 449.856C787.475 456.02 791.529 462.19 795.578 468.364C800.755 476.251 805.974 484.109 811.221 491.95C812.327 493.604 812.327 493.604 813.456 495.291C815.539 498.404 817.624 501.516 819.708 504.627C822.212 508.367 824.713 512.108 827.211 515.852C828.225 517.368 829.24 518.885 830.284 520.447C833.664 525.659 834.721 528.871 834.918 535.047C834.983 536.367 835.048 537.687 835.115 539.047C834.025 545.158 831.917 547.577 827.422 551.887C822.244 554.674 816.854 556.7 811.343 558.731C809.81 559.319 808.278 559.906 806.699 560.51C803.557 561.71 800.41 562.898 797.258 564.074C792.929 565.691 788.615 567.341 784.304 569.005C781.802 569.964 779.298 570.922 776.794 571.877C775.633 572.321 774.472 572.764 773.275 573.221C765.256 576.223 765.256 576.223 761.367 576.223C761.375 577.923 761.383 579.622 761.391 581.374C761.461 597.458 761.513 613.542 761.547 629.627C761.565 637.894 761.59 646.162 761.629 654.429C761.667 662.42 761.688 670.411 761.697 678.402C761.703 681.438 761.716 684.474 761.735 687.51C761.93 720.227 757.938 748.893 734.424 773.518C710.197 796.141 674.743 805.041 644.161 816.192C633.373 820.13 622.598 824.101 611.821 828.068C609.029 829.095 606.237 830.122 603.444 831.148C583.495 838.48 563.608 845.961 543.767 853.578C539.601 855.177 535.433 856.772 531.266 858.365C528.54 859.407 525.814 860.45 523.088 861.492C521.756 862.001 520.425 862.51 519.053 863.035C511.187 866.045 503.33 869.08 495.48 872.132C490.592 874.026 485.694 875.895 480.794 877.758C478.538 878.622 476.286 879.496 474.038 880.381C449.671 889.965 435.802 888.188 411.633 878.759C409.194 877.832 406.753 876.907 404.312 875.986C397.723 873.49 391.147 870.96 384.573 868.423C377.665 865.764 370.745 863.135 363.826 860.505C355.169 857.214 346.514 853.919 337.864 850.612C318.639 843.264 299.378 836.022 280.083 828.863C275.747 827.254 271.411 825.642 267.075 824.03C250.437 817.843 250.437 817.843 233.791 811.679C227.337 809.294 220.888 806.894 214.443 804.485C212.093 803.61 209.74 802.739 207.386 801.874C174.822 789.903 151.3 776.036 135.803 743.858C127.151 724.951 128.169 704.824 128.293 684.526C128.3 681.394 128.305 678.262 128.308 675.13C128.321 666.94 128.355 658.75 128.394 650.56C128.43 642.182 128.446 633.803 128.463 625.424C128.5 609.024 128.559 592.623 128.633 576.223C127.509 575.894 126.385 575.564 125.227 575.225C112.623 571.496 100.384 567.122 88.1091 562.425C85.1026 561.304 85.1026 561.304 82.0353 560.161C79.1363 559.053 79.1363 559.053 76.1788 557.923C74.4415 557.265 72.7042 556.606 70.9143 555.928C64.5861 552.93 58.8257 549.597 55.625 543.196C54.2104 531.986 56.2494 524.332 62.7207 515.044C63.4894 513.879 64.2581 512.715 65.0501 511.515C67.6694 507.566 70.3392 503.654 73.0078 499.739C74.9993 496.754 76.9872 493.766 78.9721 490.777C84.3409 482.713 89.7553 474.681 95.1883 466.66C98.5565 461.688 101.918 456.71 105.278 451.732C107.456 448.509 109.635 445.286 111.814 442.063C112.799 440.605 113.784 439.147 114.799 437.645C116.7 434.84 118.606 432.039 120.518 429.242C122.568 426.238 124.601 423.223 126.623 420.2C127.681 418.64 128.74 417.08 129.83 415.473C130.781 414.058 131.732 412.643 132.712 411.185C137.353 405.41 142.482 403.431 149.384 401.2C152.415 400.108 155.445 399.014 158.476 397.92C160.267 397.294 162.058 396.668 163.903 396.023C171.857 393.162 179.727 390.104 187.605 387.042C192.301 385.231 196.997 383.423 201.695 381.617C204.831 380.409 207.965 379.196 211.097 377.977C215.569 376.243 220.051 374.54 224.537 372.844C225.876 372.318 227.215 371.792 228.595 371.249C237.391 367.967 244.392 366.931 253.789 367.629C260.022 370.475 262.121 372.305 265.957 378.059C266.602 382.065 266.602 382.065 266.718 386.533C266.822 388.731 266.822 388.731 266.928 390.974C265.471 397.676 262.633 399.894 257.266 404.133C251.728 406.942 246.023 409.138 240.209 411.303C238.706 411.884 237.204 412.464 235.656 413.062C231.28 414.747 226.893 416.398 222.5 418.039C221.112 418.561 219.724 419.082 218.294 419.62C215.062 420.834 211.828 422.045 208.594 423.254C221.703 429.28 235.074 434.43 248.581 439.489C250.984 440.394 253.387 441.298 255.79 442.203C263.558 445.128 271.33 448.044 279.103 450.958C281.777 451.961 284.452 452.965 287.127 453.968C288.46 454.468 289.794 454.969 291.168 455.484C296.61 457.526 302.052 459.568 307.494 461.61C310.243 462.641 312.991 463.672 315.74 464.703C333.805 471.477 351.843 478.317 369.854 485.233C377.653 488.224 385.46 491.195 393.265 494.169C397.462 495.775 401.656 497.39 405.845 499.015C411.64 501.262 417.447 503.474 423.258 505.68C424.944 506.344 426.629 507.008 428.366 507.692C429.932 508.279 431.497 508.866 433.11 509.47C434.45 509.986 435.791 510.502 437.172 511.034C447.097 513.024 456.242 509.562 465.458 506.076C466.57 505.66 467.683 505.243 468.828 504.814C472.495 503.437 476.154 502.043 479.813 500.648C482.414 499.668 485.014 498.689 487.616 497.71C494.547 495.1 501.473 492.475 508.398 489.847C515.549 487.137 522.705 484.44 529.861 481.743C541.114 477.5 552.364 473.25 563.612 468.994C580.807 462.49 598.016 456.024 615.232 449.576C619.189 448.093 623.145 446.607 627.102 445.121C645.175 438.334 663.285 431.65 681.406 424.992C676.842 420.428 671.684 418.976 665.728 416.858C663.244 415.951 660.76 415.043 658.276 414.135C654.364 412.718 650.451 411.306 646.535 409.902C642.751 408.541 638.975 407.16 635.199 405.776C634.038 405.367 632.877 404.957 631.681 404.535C623.657 401.58 615.852 398.181 611.875 390.227C610.954 383.646 610.432 377.279 613.634 371.296C627.309 354.376 649.174 366.478 665.843 372.885ZM154.707 447.59C138.072 472.83 121.436 498.07 104.297 524.074C108.525 528.303 112.062 529.421 117.671 531.509C119.777 532.299 121.883 533.088 124.053 533.902C126.399 534.77 128.745 535.639 131.091 536.507C133.552 537.426 136.013 538.346 138.473 539.267C145.164 541.768 151.86 544.257 158.556 546.744C165.556 549.346 172.553 551.957 179.551 554.568C182.419 555.638 185.288 556.708 188.157 557.779C189.594 558.315 191.03 558.851 192.51 559.403C196.942 561.055 201.373 562.706 205.805 564.357C225.365 571.646 244.905 578.988 264.431 586.368C273.078 589.636 281.728 592.897 290.378 596.159C297.322 598.779 304.266 601.403 311.206 604.035C317.731 606.51 324.26 608.975 330.793 611.431C333.191 612.335 335.588 613.243 337.983 614.155C341.249 615.399 344.521 616.627 347.794 617.855C349.624 618.547 351.455 619.239 353.341 619.952C358.365 621.76 358.365 621.76 365.039 621.418C367.914 618.66 367.914 618.66 370.296 614.799C371.27 613.354 372.244 611.909 373.248 610.421C374.276 608.84 375.305 607.26 376.365 605.631C377.971 603.219 377.971 603.219 379.609 600.758C381.87 597.35 384.12 593.935 386.358 590.512C389.795 585.263 393.268 580.041 396.749 574.821C398.938 571.512 401.124 568.202 403.308 564.89C404.351 563.32 405.394 561.75 406.468 560.132C407.42 558.671 408.372 557.21 409.353 555.704C410.197 554.419 411.041 553.134 411.91 551.809C414.118 548.284 414.118 548.284 413.711 543.196C412.453 542.73 411.195 542.264 409.899 541.784C394.754 536.175 379.611 530.561 364.469 524.944C361.743 523.933 359.017 522.922 356.291 521.911C323.448 509.73 290.625 497.499 257.856 485.119C256.485 484.601 255.113 484.083 253.7 483.55C240.425 478.536 227.153 473.517 213.887 468.48C208.99 466.623 204.093 464.77 199.194 462.917C196.941 462.064 194.688 461.208 192.436 460.35C189.34 459.171 186.241 458 183.143 456.829C181.417 456.174 179.692 455.519 177.915 454.844C170.265 452.166 162.47 449.919 154.707 447.59ZM721.919 451.154C718.76 452.338 718.76 452.338 715.537 453.547C713.191 454.434 710.845 455.32 708.499 456.207C706.038 457.132 703.577 458.057 701.116 458.981C695.809 460.975 690.503 462.973 685.199 464.973C676.816 468.135 668.43 471.289 660.043 474.441C649.795 478.294 639.548 482.148 629.302 486.005C602.583 496.062 575.854 506.09 549.122 516.114C540.799 519.235 532.476 522.357 524.153 525.481C518.98 527.423 513.806 529.364 508.632 531.305C506.229 532.206 503.826 533.108 501.423 534.01C498.149 535.24 494.874 536.468 491.599 537.696C489.764 538.385 487.93 539.073 486.04 539.782C482.81 540.975 479.556 542.107 476.289 543.196C477.387 548.915 479.456 552.821 482.693 557.64C483.667 559.101 484.641 560.562 485.645 562.068C486.701 563.629 487.756 565.19 488.844 566.798C489.922 568.409 491 570.019 492.11 571.679C495.555 576.821 499.013 581.954 502.472 587.087C504.81 590.572 507.147 594.058 509.483 597.544C515.211 606.089 520.951 614.625 526.699 623.157C562.545 610.103 598.289 596.788 633.997 583.363C645.818 578.919 657.646 574.493 669.476 570.071C708.31 555.549 747.096 540.928 785.703 525.813C779.983 515.191 773.839 504.994 767.159 494.951C765.801 492.901 765.801 492.901 764.415 490.81C762.521 487.955 760.623 485.102 758.723 482.252C755.803 477.867 752.903 473.469 750.004 469.071C748.155 466.289 746.304 463.509 744.453 460.729C743.586 459.409 742.718 458.09 741.825 456.73C739.738 453.621 737.527 450.595 735.293 447.59C730.339 447.59 726.559 449.406 721.919 451.154ZM166.875 591.867C166.794 606.526 166.732 621.184 166.695 635.842C166.677 642.65 166.652 649.458 166.613 656.266C166.575 662.848 166.554 669.43 166.545 676.013C166.539 678.512 166.526 681.01 166.507 683.509C166.34 706.516 167.315 729.174 184.258 746.574C196.42 756.257 210.014 761.354 224.503 766.565C226.936 767.458 229.369 768.353 231.801 769.249C236.977 771.154 242.158 773.046 247.342 774.928C255.484 777.884 263.615 780.866 271.744 783.855C273.107 784.356 274.47 784.857 275.875 785.374C278.644 786.392 281.414 787.411 284.183 788.429C288.373 789.969 292.564 791.507 296.755 793.044C315.188 799.81 333.576 806.689 351.927 813.675C353.11 814.125 354.293 814.575 355.512 815.039C365.676 818.908 375.836 822.788 385.993 826.677C392.089 829.011 398.188 831.338 404.286 833.665C406.988 834.705 406.988 834.705 409.744 835.765C412.189 836.697 412.189 836.697 414.684 837.648C416.1 838.191 417.516 838.735 418.976 839.294C422.349 840.626 422.349 840.626 425.879 840.442C425.879 761.28 425.879 682.119 425.879 600.559C419.864 606.573 415.391 612.424 410.825 619.476C409.287 621.814 407.749 624.152 406.211 626.49C403.813 630.158 401.418 633.828 399.025 637.5C396.702 641.058 394.366 644.608 392.03 648.158C391.318 649.259 390.606 650.36 389.873 651.494C386.52 656.581 384.087 659.709 378.945 663.137C363.793 666.042 349.881 659.578 336.072 654.167C333.596 653.221 331.118 652.278 328.64 651.337C323.402 649.343 318.172 647.331 312.947 645.305C304.825 642.154 296.688 639.044 288.549 635.94C277.821 631.845 267.1 627.735 256.383 623.612C238.97 616.915 221.53 610.292 204.066 603.73C199.769 602.112 195.478 600.48 191.186 598.847C188.655 597.892 186.124 596.937 183.592 595.982C181.47 595.178 179.348 594.373 177.161 593.544C172.155 591.595 172.155 591.595 166.875 591.867ZM706.85 595.79C705.731 596.209 704.611 596.628 703.458 597.06C699.73 598.458 696.007 599.868 692.284 601.279C689.658 602.267 687.033 603.254 684.406 604.24C678.832 606.336 673.26 608.437 667.689 610.542C659.046 613.808 650.397 617.056 641.747 620.303C618.042 629.209 594.345 638.13 570.754 647.336C567.773 648.493 564.792 649.649 561.81 650.805C556.689 652.792 551.584 654.815 546.487 656.864C521.953 666.54 521.953 666.54 511.055 663.137C503.805 656.988 498.777 649.67 493.59 641.809C492.797 640.625 492.003 639.442 491.185 638.222C488.673 634.474 486.174 630.717 483.677 626.959C481.154 623.171 478.627 619.385 476.094 615.603C474.523 613.257 472.958 610.906 471.399 608.552C469.597 605.857 467.735 603.203 465.859 600.559C465.286 600.559 464.712 600.559 464.121 600.559C464.121 679.72 464.121 758.882 464.121 840.442C478.255 836.234 478.255 836.234 492.09 831.412C493.994 830.699 495.898 829.986 497.86 829.252C499.884 828.488 501.908 827.724 503.993 826.936C506.188 826.112 508.384 825.288 510.579 824.465C516.471 822.254 522.36 820.035 528.249 817.814C531.927 816.427 535.607 815.04 539.286 813.654C549.414 809.839 559.542 806.023 569.668 802.201C584.727 796.519 599.799 790.875 614.886 785.268C623.029 782.242 631.165 779.199 639.299 776.151C644.79 774.095 650.282 772.047 655.783 770.017C661.888 767.76 667.981 765.475 674.073 763.183C675.853 762.533 677.634 761.883 679.468 761.213C697.056 754.53 708.82 745.811 717.91 729.192C722.568 718.102 723.345 706.612 723.322 694.681C723.323 693 723.323 693 723.323 691.285C723.322 687.626 723.308 683.968 723.295 680.309C723.291 677.755 723.289 675.2 723.287 672.645C723.281 665.955 723.264 659.265 723.244 652.576C723.226 645.735 723.219 638.895 723.21 632.055C723.191 618.659 723.162 605.263 723.125 591.867C716.851 591.867 712.731 593.573 706.85 595.79Z"
    fill="--primary"
  />
  <path
    d="M432.654 124.771C434.931 110.096 456.069 110.096 458.346 124.771L472.323 214.825C473.191 220.42 477.58 224.809 483.175 225.677L573.229 239.654C587.904 241.931 587.904 263.069 573.229 265.346L483.175 279.323C477.58 280.191 473.191 284.58 472.323 290.175L458.346 380.229C456.069 394.904 434.931 394.904 432.654 380.229L418.677 290.175C417.809 284.58 413.42 280.191 407.825 279.323L317.771 265.346C303.096 263.069 303.096 241.931 317.771 239.654L407.825 225.677C413.42 224.809 417.809 220.42 418.677 214.825L432.654 124.771Z"
    fill="--primary"
  />
  <path
    d="M589.33 332.618C600.618 334.37 600.618 350.63 589.33 352.382L578.423 354.075C574.119 354.742 570.742 358.119 570.075 362.423L568.382 373.33C566.63 384.618 550.37 384.618 548.618 373.33L546.925 362.423C546.258 358.119 542.881 354.742 538.577 354.075L527.67 352.382C516.382 350.63 516.382 334.37 527.67 332.618L538.577 330.925C542.881 330.258 546.258 326.881 546.925 322.577L548.618 311.67C550.37 300.382 566.63 300.382 568.382 311.67L570.075 322.577C570.742 326.881 574.119 330.258 578.423 330.925L589.33 332.618Z"
    fill="--primary"
  />
  <path
    d="M683.876 149.391C695.165 151.143 695.165 167.403 683.876 169.155L645.464 175.116C641.161 175.784 637.784 179.161 637.116 183.464L631.155 221.876C629.403 233.164 613.143 233.164 611.391 221.876L605.43 183.464C604.762 179.161 601.385 175.784 597.082 175.116L558.67 169.155C547.382 167.403 547.382 151.143 558.67 149.391L597.082 143.43C601.385 142.762 604.762 139.385 605.43 135.082L611.391 96.67C613.143 85.3816 629.403 85.3816 631.155 96.67L637.116 135.082C637.784 139.385 641.161 142.762 645.464 143.43L683.876 149.391Z"
    fill="--primary"
  />
  <path
    d="M367.243 342.152C377.403 343.729 377.403 358.363 367.243 359.939L340.59 364.076C336.716 364.677 333.677 367.716 333.076 371.589L328.94 398.243C327.363 408.403 312.729 408.403 311.153 398.243L307.016 371.589C306.415 367.716 303.376 364.677 299.503 364.076L272.849 359.939C262.69 358.363 262.69 343.729 272.849 342.152L299.503 338.016C303.376 337.415 306.415 334.376 307.016 330.502L311.153 303.849C312.729 293.689 327.363 293.689 328.94 303.849L333.076 330.502C333.677 334.376 336.716 337.415 340.59 338.016L367.243 342.152Z"
    fill="--primary"
  />
  <path
    d="M313.775 113.427C328.45 115.704 328.45 136.842 313.775 139.119L296.632 141.78C291.037 142.648 286.648 147.038 285.78 152.632L283.119 169.775C280.841 184.45 259.704 184.45 257.427 169.775L254.766 152.632C253.898 147.038 249.508 142.648 243.914 141.78L226.771 139.119C212.096 136.842 212.096 115.704 226.771 113.427L243.914 110.766C249.508 109.898 253.898 105.509 254.766 99.9138L257.427 82.771C259.704 68.096 280.841 68.096 283.119 82.771L285.78 99.9138C286.648 105.509 291.037 109.898 296.632 110.766L313.775 113.427Z"
    fill="--primary"
  />
</svg>
