<svg width="1024" height="1024" viewBox="0 0 1024 1024" fill="none" xmlns="http://www.w3.org/2000/svg">
<g id="mindful-timer" clip-path="url(#clip0_216_2)">
<rect id="Rectangle 155" width="1024" height="1024" rx="271" fill="--primary" fill-opacity="0.25"/>
<path id="Subtract" d="M512 82C749.482 82 942 274.518 942 512C942 749.482 749.482 942 512 942C274.518 942 82 749.482 82 512C82 274.518 274.518 82 512 82ZM482.988 800.395C468.935 798.981 455.542 807.963 452.896 821.838C450.249 835.712 459.347 849.206 473.381 850.806C477.728 851.301 482.086 851.713 486.449 852.041C500.534 853.099 512 841.549 512 827.425C512 813.3 500.528 801.967 486.458 800.723C485.301 800.62 484.144 800.511 482.988 800.395ZM619.882 808.402C615.051 795.13 600.394 788.403 586.747 792.046C585.625 792.345 584.501 792.639 583.375 792.925C569.685 796.403 560.173 809.424 562.431 823.367C564.689 837.31 577.854 846.879 591.589 843.582C595.844 842.561 600.079 841.458 604.291 840.273C617.888 836.451 624.713 821.675 619.882 808.402ZM386.102 773.079C373.379 766.944 357.722 770.805 350.489 782.938C343.257 795.07 347.191 810.862 359.831 817.165C363.747 819.118 367.7 820.995 371.688 822.796C384.562 828.608 399.287 821.675 404.118 808.402C408.949 795.13 402.045 780.556 389.25 774.574C388.198 774.082 387.148 773.584 386.102 773.079ZM714.751 753.63C705.672 742.81 689.6 741.502 678.021 749.592C677.069 750.257 676.113 750.917 675.152 751.571C663.478 759.522 658.992 775.012 665.883 787.342C672.774 799.671 688.418 804.159 700.196 796.364C703.845 793.949 707.448 791.465 711.001 788.911C722.471 780.668 723.83 764.45 714.751 753.63ZM304.399 714.274C294.542 704.158 278.509 702.431 267.563 711.357C256.618 720.285 254.913 736.471 264.636 746.717C267.648 749.891 270.721 753.007 273.853 756.062C283.962 765.927 300.17 764.45 309.249 753.63C318.328 742.81 316.825 726.753 306.847 716.756C306.026 715.934 305.21 715.107 304.399 714.274ZM247.737 631.072C241.935 618.195 227.459 611.087 214.12 615.732C200.781 620.378 193.644 635.005 199.275 647.958C201.02 651.971 202.842 655.95 204.74 659.893C210.866 672.62 226.602 676.775 238.834 669.713C251.066 662.651 255.145 647.048 249.188 634.241C248.699 633.188 248.215 632.131 247.737 631.072ZM513 345C499.193 345 488 356.193 488 370V520C488 522.455 488.355 524.827 489.015 527.068C490.039 531.453 492.26 535.615 495.678 539.033L548.711 592.066C558.474 601.829 574.303 601.829 584.066 592.066C593.829 582.303 593.829 566.474 584.066 556.711L538 510.645V370C538 356.193 526.807 345 513 345ZM196.605 507.596C182.482 507.399 170.773 518.703 171.635 532.801C171.902 537.168 172.253 541.531 172.688 545.885C174.091 559.94 187.457 569.226 201.367 566.773C215.277 564.321 224.446 551.054 223.229 536.982C223.128 535.825 223.035 534.666 222.949 533.508C221.901 519.422 210.729 507.793 196.605 507.596ZM217.133 399.99C203.929 394.974 189.059 401.592 185.047 415.135C183.804 419.33 182.642 423.549 181.562 427.789C178.073 441.476 187.457 454.774 201.367 457.227C215.277 459.679 228.431 450.35 232.1 436.71C232.401 435.588 232.709 434.468 233.024 433.35C236.857 419.755 230.337 405.006 217.133 399.99ZM273.225 305.895C262.532 296.665 246.297 297.799 237.895 309.152C235.292 312.67 232.757 316.237 230.291 319.852C222.332 331.52 226.602 347.225 238.834 354.287C251.066 361.349 266.617 357.081 274.729 345.519C275.397 344.568 276.07 343.621 276.749 342.678C285 331.214 283.917 315.124 273.225 305.895ZM358.117 236.658C351.226 224.329 335.582 219.841 323.804 227.636C320.155 230.051 316.552 232.535 312.999 235.089C301.529 243.332 300.17 259.55 309.249 270.37C318.328 281.19 334.401 282.499 345.979 274.408C346.932 273.743 347.888 273.083 348.848 272.429C360.522 264.478 365.008 248.988 358.117 236.658ZM461.569 200.633C459.311 186.69 446.146 177.121 432.411 180.418C428.156 181.439 423.921 182.542 419.709 183.727C406.112 187.549 399.287 202.325 404.118 215.598C408.949 228.87 423.606 235.597 437.253 231.954C438.375 231.655 439.499 231.361 440.625 231.075C454.315 227.597 463.827 214.576 461.569 200.633Z" fill="--primary"/>
</g>
<defs>
<clipPath id="clip0_216_2">
<rect width="1024" height="1024" fill="white"/>
</clipPath>
</defs>
</svg>
