<?xml version="1.0" encoding="UTF-8"?>
<svg width="512px" height="512px" viewBox="0 0 512 512" version="1.1" xmlns="http://www.w3.org/2000/svg" xmlns:xlink="http://www.w3.org/1999/xlink">
    <title>favicon</title>
    <g id="favicon" stroke="none" stroke-width="1" fill="none" fill-rule="evenodd">
        <g id="C" transform="translate(12, 2)" fill="#FFBC51" fill-rule="nonzero">
            <path d="M0,253.854545 C0,204.690909 10.648688,160.845455 31.9460641,122.318182 C53.2434402,83.7909091 82.941448,53.7727273 121.040087,32.2636364 C159.138727,10.7545455 202.325073,0 250.599125,0 C309.758503,0 360.398931,15.6 402.520408,46.8 C444.641885,78 472.801749,120.545455 487,174.436364 L353.536443,174.436364 C343.597668,153.636364 329.517736,137.8 311.296647,126.927273 C293.075559,116.054545 272.369776,110.618182 249.1793,110.618182 C211.790573,110.618182 181.500972,123.618182 158.310496,149.618182 C135.120019,175.618182 123.524781,210.363636 123.524781,253.854545 C123.524781,297.345455 135.120019,332.090909 158.310496,358.090909 C181.500972,384.090909 211.790573,397.090909 249.1793,397.090909 C272.369776,397.090909 293.075559,391.654545 311.296647,380.781818 C329.517736,369.909091 343.597668,354.072727 353.536443,333.272727 L487,333.272727 C472.801749,387.163636 444.641885,429.590909 402.520408,460.554545 C360.398931,491.518182 309.758503,507 250.599125,507 C202.325073,507 159.138727,496.245455 121.040087,474.736364 C82.941448,453.227273 53.2434402,423.327273 31.9460641,385.036364 C10.648688,346.745455 0,303.018182 0,253.854545 Z" id="Path"></path>
        </g>
    </g>
</svg>